<?xml version="1.0" standalone="no"?>
<!DOCTYPE svg PUBLIC "-//W3C//DTD SVG 1.1//EN" "http://www.w3.org/Graphics/SVG/1.1/DTD/svg11.dtd">
<svg version="1.1" width="1200" height="422" onload="init(evt)" viewBox="0 0 1200 422" xmlns="http://www.w3.org/2000/svg" xmlns:xlink="http://www.w3.org/1999/xlink">
<!-- Flame graph stack visualization. See https://github.com/brendangregg/FlameGraph for latest version, and http://www.brendangregg.com/flamegraphs.html for examples. -->
<!-- NOTES:  -->
<defs>
	<linearGradient id="background" y1="0" y2="1" x1="0" x2="0" >
		<stop stop-color="#eeeeee" offset="5%" />
		<stop stop-color="#eeeeb0" offset="95%" />
	</linearGradient>
</defs>
<style type="text/css">
	text { font-family:Verdana; font-size:12px; fill:rgb(0,0,0); }
	#search, #ignorecase { opacity:0.1; cursor:pointer; }
	#search:hover, #search.show, #ignorecase:hover, #ignorecase.show { opacity:1; }
	#subtitle { text-anchor:middle; font-color:rgb(160,160,160); }
	#title { text-anchor:middle; font-size:17px}
	#unzoom { cursor:pointer; }
	#frames > *:hover { stroke:black; stroke-width:0.5; cursor:pointer; }
	.hide { display:none; }
	.parent { opacity:0.5; }
</style>
<script type="text/ecmascript">
<![CDATA[
	"use strict";
	var details, searchbtn, unzoombtn, matchedtxt, svg, searching, currentSearchTerm, ignorecase, ignorecaseBtn;
	function init(evt) {
		details = document.getElementById("details").firstChild;
		searchbtn = document.getElementById("search");
		ignorecaseBtn = document.getElementById("ignorecase");
		unzoombtn = document.getElementById("unzoom");
		matchedtxt = document.getElementById("matched");
		svg = document.getElementsByTagName("svg")[0];
		searching = 0;
		currentSearchTerm = null;

		// use GET parameters to restore a flamegraphs state.
		var params = get_params();
		if (params.x && params.y)
			zoom(find_group(document.querySelector('[x="' + params.x + '"][y="' + params.y + '"]')));
                if (params.s) search(params.s);
	}

	// event listeners
	window.addEventListener("click", function(e) {
		var target = find_group(e.target);
		if (target) {
			if (target.nodeName == "a") {
				if (e.ctrlKey === false) return;
				e.preventDefault();
			}
			if (target.classList.contains("parent")) unzoom(true);
			zoom(target);
			if (!document.querySelector('.parent')) {
				// we have basically done a clearzoom so clear the url
				var params = get_params();
				if (params.x) delete params.x;
				if (params.y) delete params.y;
				history.replaceState(null, null, parse_params(params));
				unzoombtn.classList.add("hide");
				return;
			}

			// set parameters for zoom state
			var el = target.querySelector("rect");
			if (el && el.attributes && el.attributes.y && el.attributes._orig_x) {
				var params = get_params()
				params.x = el.attributes._orig_x.value;
				params.y = el.attributes.y.value;
				history.replaceState(null, null, parse_params(params));
			}
		}
		else if (e.target.id == "unzoom") clearzoom();
		else if (e.target.id == "search") search_prompt();
		else if (e.target.id == "ignorecase") toggle_ignorecase();
	}, false)

	// mouse-over for info
	// show
	window.addEventListener("mouseover", function(e) {
		var target = find_group(e.target);
		if (target) details.nodeValue = "Function: " + g_to_text(target);
	}, false)

	// clear
	window.addEventListener("mouseout", function(e) {
		var target = find_group(e.target);
		if (target) details.nodeValue = ' ';
	}, false)

	// ctrl-F for search
	// ctrl-I to toggle case-sensitive search
	window.addEventListener("keydown",function (e) {
		if (e.keyCode === 114 || (e.ctrlKey && e.keyCode === 70)) {
			e.preventDefault();
			search_prompt();
		}
		else if (e.ctrlKey && e.keyCode === 73) {
			e.preventDefault();
			toggle_ignorecase();
		}
	}, false)

	// functions
	function get_params() {
		var params = {};
		var paramsarr = window.location.search.substr(1).split('&');
		for (var i = 0; i < paramsarr.length; ++i) {
			var tmp = paramsarr[i].split("=");
			if (!tmp[0] || !tmp[1]) continue;
			params[tmp[0]]  = decodeURIComponent(tmp[1]);
		}
		return params;
	}
	function parse_params(params) {
		var uri = "?";
		for (var key in params) {
			uri += key + '=' + encodeURIComponent(params[key]) + '&';
		}
		if (uri.slice(-1) == "&")
			uri = uri.substring(0, uri.length - 1);
		if (uri == '?')
			uri = window.location.href.split('?')[0];
		return uri;
	}
	function find_child(node, selector) {
		var children = node.querySelectorAll(selector);
		if (children.length) return children[0];
	}
	function find_group(node) {
		var parent = node.parentElement;
		if (!parent) return;
		if (parent.id == "frames") return node;
		return find_group(parent);
	}
	function orig_save(e, attr, val) {
		if (e.attributes["_orig_" + attr] != undefined) return;
		if (e.attributes[attr] == undefined) return;
		if (val == undefined) val = e.attributes[attr].value;
		e.setAttribute("_orig_" + attr, val);
	}
	function orig_load(e, attr) {
		if (e.attributes["_orig_"+attr] == undefined) return;
		e.attributes[attr].value = e.attributes["_orig_" + attr].value;
		e.removeAttribute("_orig_"+attr);
	}
	function g_to_text(e) {
		var text = find_child(e, "title").firstChild.nodeValue;
		return (text)
	}
	function g_to_func(e) {
		var func = g_to_text(e);
		// if there's any manipulation we want to do to the function
		// name before it's searched, do it here before returning.
		return (func);
	}
	function update_text(e) {
		var r = find_child(e, "rect");
		var t = find_child(e, "text");
		var w = parseFloat(r.attributes.width.value) -3;
		var txt = find_child(e, "title").textContent.replace(/\([^(]*\)$/,"");
		t.attributes.x.value = parseFloat(r.attributes.x.value) + 3;

		// Smaller than this size won't fit anything
		if (w < 2 * 12 * 0.59) {
			t.textContent = "";
			return;
		}

		t.textContent = txt;
		var sl = t.getSubStringLength(0, txt.length);
		// check if only whitespace or if we can fit the entire string into width w
		if (/^ *$/.test(txt) || sl < w)
			return;

		// this isn't perfect, but gives a good starting point
		// and avoids calling getSubStringLength too often
		var start = Math.floor((w/sl) * txt.length);
		for (var x = start; x > 0; x = x-2) {
			if (t.getSubStringLength(0, x + 2) <= w) {
				t.textContent = txt.substring(0, x) + "..";
				return;
			}
		}
		t.textContent = "";
	}

	// zoom
	function zoom_reset(e) {
		if (e.attributes != undefined) {
			orig_load(e, "x");
			orig_load(e, "width");
		}
		if (e.childNodes == undefined) return;
		for (var i = 0, c = e.childNodes; i < c.length; i++) {
			zoom_reset(c[i]);
		}
	}
	function zoom_child(e, x, ratio) {
		if (e.attributes != undefined) {
			if (e.attributes.x != undefined) {
				orig_save(e, "x");
				e.attributes.x.value = (parseFloat(e.attributes.x.value) - x - 10) * ratio + 10;
				if (e.tagName == "text")
					e.attributes.x.value = find_child(e.parentNode, "rect[x]").attributes.x.value + 3;
			}
			if (e.attributes.width != undefined) {
				orig_save(e, "width");
				e.attributes.width.value = parseFloat(e.attributes.width.value) * ratio;
			}
		}

		if (e.childNodes == undefined) return;
		for (var i = 0, c = e.childNodes; i < c.length; i++) {
			zoom_child(c[i], x - 10, ratio);
		}
	}
	function zoom_parent(e) {
		if (e.attributes) {
			if (e.attributes.x != undefined) {
				orig_save(e, "x");
				e.attributes.x.value = 10;
			}
			if (e.attributes.width != undefined) {
				orig_save(e, "width");
				e.attributes.width.value = parseInt(svg.width.baseVal.value) - (10 * 2);
			}
		}
		if (e.childNodes == undefined) return;
		for (var i = 0, c = e.childNodes; i < c.length; i++) {
			zoom_parent(c[i]);
		}
	}
	function zoom(node) {
		var attr = find_child(node, "rect").attributes;
		var width = parseFloat(attr.width.value);
		var xmin = parseFloat(attr.x.value);
		var xmax = parseFloat(xmin + width);
		var ymin = parseFloat(attr.y.value);
		var ratio = (svg.width.baseVal.value - 2 * 10) / width;

		// XXX: Workaround for JavaScript float issues (fix me)
		var fudge = 0.0001;

		unzoombtn.classList.remove("hide");

		var el = document.getElementById("frames").children;
		for (var i = 0; i < el.length; i++) {
			var e = el[i];
			var a = find_child(e, "rect").attributes;
			var ex = parseFloat(a.x.value);
			var ew = parseFloat(a.width.value);
			var upstack;
			// Is it an ancestor
			if (0 == 0) {
				upstack = parseFloat(a.y.value) > ymin;
			} else {
				upstack = parseFloat(a.y.value) < ymin;
			}
			if (upstack) {
				// Direct ancestor
				if (ex <= xmin && (ex+ew+fudge) >= xmax) {
					e.classList.add("parent");
					zoom_parent(e);
					update_text(e);
				}
				// not in current path
				else
					e.classList.add("hide");
			}
			// Children maybe
			else {
				// no common path
				if (ex < xmin || ex + fudge >= xmax) {
					e.classList.add("hide");
				}
				else {
					zoom_child(e, xmin, ratio);
					update_text(e);
				}
			}
		}
		search();
	}
	function unzoom(dont_update_text) {
		unzoombtn.classList.add("hide");
		var el = document.getElementById("frames").children;
		for(var i = 0; i < el.length; i++) {
			el[i].classList.remove("parent");
			el[i].classList.remove("hide");
			zoom_reset(el[i]);
			if(!dont_update_text) update_text(el[i]);
		}
		search();
	}
	function clearzoom() {
		unzoom();

		// remove zoom state
		var params = get_params();
		if (params.x) delete params.x;
		if (params.y) delete params.y;
		history.replaceState(null, null, parse_params(params));
	}

	// search
	function toggle_ignorecase() {
		ignorecase = !ignorecase;
		if (ignorecase) {
			ignorecaseBtn.classList.add("show");
		} else {
			ignorecaseBtn.classList.remove("show");
		}
		reset_search();
		search();
	}
	function reset_search() {
		var el = document.querySelectorAll("#frames rect");
		for (var i = 0; i < el.length; i++) {
			orig_load(el[i], "fill")
		}
		var params = get_params();
		delete params.s;
		history.replaceState(null, null, parse_params(params));
	}
	function search_prompt() {
		if (!searching) {
			var term = prompt("Enter a search term (regexp " +
			    "allowed, eg: ^ext4_)"
			    + (ignorecase ? ", ignoring case" : "")
			    + "\nPress Ctrl-i to toggle case sensitivity", "");
			if (term != null) search(term);
		} else {
			reset_search();
			searching = 0;
			currentSearchTerm = null;
			searchbtn.classList.remove("show");
			searchbtn.firstChild.nodeValue = "Search"
			matchedtxt.classList.add("hide");
			matchedtxt.firstChild.nodeValue = ""
		}
	}
	function search(term) {
		if (term) currentSearchTerm = term;

		var re = new RegExp(currentSearchTerm, ignorecase ? 'i' : '');
		var el = document.getElementById("frames").children;
		var matches = new Object();
		var maxwidth = 0;
		for (var i = 0; i < el.length; i++) {
			var e = el[i];
			var func = g_to_func(e);
			var rect = find_child(e, "rect");
			if (func == null || rect == null)
				continue;

			// Save max width. Only works as we have a root frame
			var w = parseFloat(rect.attributes.width.value);
			if (w > maxwidth)
				maxwidth = w;

			if (func.match(re)) {
				// highlight
				var x = parseFloat(rect.attributes.x.value);
				orig_save(rect, "fill");
				rect.attributes.fill.value = "rgb(230,0,230)";

				// remember matches
				if (matches[x] == undefined) {
					matches[x] = w;
				} else {
					if (w > matches[x]) {
						// overwrite with parent
						matches[x] = w;
					}
				}
				searching = 1;
			}
		}
		if (!searching)
			return;
		var params = get_params();
		params.s = currentSearchTerm;
		history.replaceState(null, null, parse_params(params));

		searchbtn.classList.add("show");
		searchbtn.firstChild.nodeValue = "Reset Search";

		// calculate percent matched, excluding vertical overlap
		var count = 0;
		var lastx = -1;
		var lastw = 0;
		var keys = Array();
		for (k in matches) {
			if (matches.hasOwnProperty(k))
				keys.push(k);
		}
		// sort the matched frames by their x location
		// ascending, then width descending
		keys.sort(function(a, b){
			return a - b;
		});
		// Step through frames saving only the biggest bottom-up frames
		// thanks to the sort order. This relies on the tree property
		// where children are always smaller than their parents.
		var fudge = 0.0001;	// JavaScript floating point
		for (var k in keys) {
			var x = parseFloat(keys[k]);
			var w = matches[keys[k]];
			if (x >= lastx + lastw - fudge) {
				count += w;
				lastx = x;
				lastw = w;
			}
		}
		// display matched percent
		matchedtxt.classList.remove("hide");
		var pct = 100 * count / maxwidth;
		if (pct != 100) pct = pct.toFixed(1)
		matchedtxt.firstChild.nodeValue = "Matched: " + pct + "%";
	}
]]>
</script>
<rect x="0.0" y="0" width="1200.0" height="422.0" fill="url(#background)"  />
<text id="title" x="600.00" y="24" >CPU Flame Graph</text>
<text id="details" x="10.00" y="405" > </text>
<text id="unzoom" x="10.00" y="24" class="hide">Reset Zoom</text>
<text id="search" x="1090.00" y="24" >Search</text>
<text id="ignorecase" x="1174.00" y="24" >ic</text>
<text id="matched" x="1090.00" y="405" > </text>
<g id="frames">
<g >
<title>main (3,835 samples, 12.68%)</title><rect x="849.9" y="341" width="149.6" height="15.0" fill="rgb(243,179,42)" rx="2" ry="2" />
<text  x="852.90" y="351.5" >main</text>
</g>
<g >
<title>0xfffffffffffffe00 (4,851 samples, 16.04%)</title><rect x="1000.7" y="325" width="189.3" height="15.0" fill="rgb(239,160,38)" rx="2" ry="2" />
<text  x="1003.73" y="335.5" >0xfffffffffffffe00</text>
</g>
<g >
<title>0xfffffffffffffe00 (388 samples, 1.28%)</title><rect x="984.2" y="277" width="15.1" height="15.0" fill="rgb(239,160,38)" rx="2" ry="2" />
<text  x="987.19" y="287.5" ></text>
</g>
<g >
<title>0xffffffffffffff80 (3 samples, 0.01%)</title><rect x="991.3" y="101" width="0.1" height="15.0" fill="rgb(231,122,29)" rx="2" ry="2" />
<text  x="994.29" y="111.5" ></text>
</g>
<g >
<title>0xfffffffffffffe00 (5 samples, 0.02%)</title><rect x="983.9" y="309" width="0.2" height="15.0" fill="rgb(239,160,38)" rx="2" ry="2" />
<text  x="986.92" y="319.5" ></text>
</g>
<g >
<title>0xffffffff93097b77 (3 samples, 0.01%)</title><rect x="1189.9" y="293" width="0.1" height="15.0" fill="rgb(232,124,29)" rx="2" ry="2" />
<text  x="1192.88" y="303.5" ></text>
</g>
<g >
<title>0xffffffffffffff80 (3 samples, 0.01%)</title><rect x="993.7" y="69" width="0.1" height="15.0" fill="rgb(231,122,29)" rx="2" ry="2" />
<text  x="996.71" y="79.5" ></text>
</g>
<g >
<title>0xffffffff9320012b (340 samples, 1.12%)</title><rect x="985.5" y="261" width="13.2" height="15.0" fill="rgb(243,177,42)" rx="2" ry="2" />
<text  x="988.48" y="271.5" ></text>
</g>
<g >
<title>0xffffffffffffff80 (4 samples, 0.01%)</title><rect x="988.4" y="133" width="0.2" height="15.0" fill="rgb(231,122,29)" rx="2" ry="2" />
<text  x="991.44" y="143.5" ></text>
</g>
<g >
<title> 0xfffffffffffffe00 (87 samples, 0.29%)</title><rect x="451.0" y="325" width="3.4" height="15.0" fill="rgb(233,129,30)" rx="2" ry="2" />
<text  x="453.96" y="335.5" ></text>
</g>
<g >
<title>0xffffffff91f5eb5f (14 samples, 0.05%)</title><rect x="990.6" y="117" width="0.5" height="15.0" fill="rgb(234,134,32)" rx="2" ry="2" />
<text  x="993.59" y="127.5" ></text>
</g>
<g >
<title>0xfffffffffffffe00 (3,403 samples, 11.25%)</title><rect x="851.1" y="325" width="132.8" height="15.0" fill="rgb(239,160,38)" rx="2" ry="2" />
<text  x="854.15" y="335.5" >0xfffffffffffffe00</text>
</g>
<g >
<title>0xffffffff91f699d8 (3 samples, 0.01%)</title><rect x="993.7" y="85" width="0.1" height="15.0" fill="rgb(220,70,16)" rx="2" ry="2" />
<text  x="996.71" y="95.5" ></text>
</g>
<g >
<title>0xffffffff92025b05 (6 samples, 0.02%)</title><rect x="987.3" y="181" width="0.2" height="15.0" fill="rgb(254,229,54)" rx="2" ry="2" />
<text  x="990.27" y="191.5" ></text>
</g>
<g >
<title>0xffffffff91f8fe23 (169 samples, 0.56%)</title><rect x="988.8" y="149" width="6.6" height="15.0" fill="rgb(237,150,36)" rx="2" ry="2" />
<text  x="991.79" y="159.5" ></text>
</g>
<g >
<title>0xffffffffffffff80 (3 samples, 0.01%)</title><rect x="987.9" y="133" width="0.2" height="15.0" fill="rgb(231,122,29)" rx="2" ry="2" />
<text  x="990.94" y="143.5" ></text>
</g>
<g >
<title>0xffffffffffffff80 (17 samples, 0.06%)</title><rect x="997.1" y="165" width="0.6" height="15.0" fill="rgb(231,122,29)" rx="2" ry="2" />
<text  x="1000.07" y="175.5" ></text>
</g>
<g >
<title>0xffffffff91f699ba (5 samples, 0.02%)</title><rect x="992.6" y="101" width="0.2" height="15.0" fill="rgb(218,61,14)" rx="2" ry="2" />
<text  x="995.58" y="111.5" ></text>
</g>
<g >
<title>0xffffffffffffff80 (22 samples, 0.07%)</title><rect x="984.6" y="245" width="0.9" height="15.0" fill="rgb(231,122,29)" rx="2" ry="2" />
<text  x="987.62" y="255.5" ></text>
</g>
<g >
<title>0xffffffffffffff80 (3 samples, 0.01%)</title><rect x="994.0" y="69" width="0.1" height="15.0" fill="rgb(231,122,29)" rx="2" ry="2" />
<text  x="996.98" y="79.5" ></text>
</g>
<g >
<title>0xffffffff91f7044c (67 samples, 0.22%)</title><rect x="992.5" y="117" width="2.7" height="15.0" fill="rgb(236,145,34)" rx="2" ry="2" />
<text  x="995.54" y="127.5" ></text>
</g>
<g >
<title>0xffffffff930a99f7 (12 samples, 0.04%)</title><rect x="990.6" y="101" width="0.5" height="15.0" fill="rgb(222,78,18)" rx="2" ry="2" />
<text  x="993.59" y="111.5" ></text>
</g>
<g >
<title>0xffffffff92025048 (3 samples, 0.01%)</title><rect x="987.0" y="165" width="0.2" height="15.0" fill="rgb(232,127,30)" rx="2" ry="2" />
<text  x="990.04" y="175.5" ></text>
</g>
<g >
<title>0xffffffff93097b77 (8 samples, 0.03%)</title><rect x="849.5" y="293" width="0.4" height="15.0" fill="rgb(232,124,29)" rx="2" ry="2" />
<text  x="852.55" y="303.5" ></text>
</g>
<g >
<title>0xffffffff930956e9 (20 samples, 0.07%)</title><rect x="991.6" y="69" width="0.8" height="15.0" fill="rgb(219,65,15)" rx="2" ry="2" />
<text  x="994.60" y="79.5" ></text>
</g>
<g >
<title>0xffffffff91fe3661 (7 samples, 0.02%)</title><rect x="995.5" y="149" width="0.2" height="15.0" fill="rgb(217,56,13)" rx="2" ry="2" />
<text  x="998.47" y="159.5" ></text>
</g>
<g >
<title>0xffffffffffffff80 (16 samples, 0.05%)</title><rect x="991.6" y="37" width="0.6" height="15.0" fill="rgb(231,122,29)" rx="2" ry="2" />
<text  x="994.60" y="47.5" ></text>
</g>
<g >
<title>clock (396 samples, 1.31%)</title><rect x="983.9" y="325" width="15.5" height="15.0" fill="rgb(228,108,25)" rx="2" ry="2" />
<text  x="986.92" y="335.5" ></text>
</g>
<g >
<title>0xffffffffffffff80 (3 samples, 0.01%)</title><rect x="988.6" y="133" width="0.1" height="15.0" fill="rgb(231,122,29)" rx="2" ry="2" />
<text  x="991.60" y="143.5" ></text>
</g>
<g >
<title>0xffffffff93200080 (23 samples, 0.08%)</title><rect x="984.6" y="261" width="0.9" height="15.0" fill="rgb(234,134,32)" rx="2" ry="2" />
<text  x="987.58" y="271.5" ></text>
</g>
<g >
<title>0xffffffff91face1b (3 samples, 0.01%)</title><rect x="989.1" y="85" width="0.1" height="15.0" fill="rgb(245,184,44)" rx="2" ry="2" />
<text  x="992.11" y="95.5" ></text>
</g>
<g >
<title>0xffffffff920141a1 (7 samples, 0.02%)</title><rect x="849.6" y="213" width="0.3" height="15.0" fill="rgb(243,177,42)" rx="2" ry="2" />
<text  x="852.59" y="223.5" ></text>
</g>
<g >
<title>0xffffffff920232b2 (7 samples, 0.02%)</title><rect x="985.6" y="213" width="0.3" height="15.0" fill="rgb(224,88,21)" rx="2" ry="2" />
<text  x="988.60" y="223.5" ></text>
</g>
<g >
<title>0xffffffff93200f0b (3 samples, 0.01%)</title><rect x="1189.9" y="309" width="0.1" height="15.0" fill="rgb(214,42,10)" rx="2" ry="2" />
<text  x="1192.88" y="319.5" ></text>
</g>
<g >
<title>clock_gettime@@GLIBC_2.17 (4 samples, 0.01%)</title><rect x="999.4" y="325" width="0.1" height="15.0" fill="rgb(250,209,50)" rx="2" ry="2" />
<text  x="1002.37" y="335.5" ></text>
</g>
<g >
<title>0xffffffffffffff80 (3 samples, 0.01%)</title><rect x="987.4" y="149" width="0.1" height="15.0" fill="rgb(231,122,29)" rx="2" ry="2" />
<text  x="990.35" y="159.5" ></text>
</g>
<g >
<title>0xffffffff92025b1c (215 samples, 0.71%)</title><rect x="987.5" y="181" width="8.4" height="15.0" fill="rgb(251,212,50)" rx="2" ry="2" />
<text  x="990.51" y="191.5" ></text>
</g>
<g >
<title>0xffffffff92016078 (3 samples, 0.01%)</title><rect x="1189.9" y="261" width="0.1" height="15.0" fill="rgb(213,37,9)" rx="2" ry="2" />
<text  x="1192.88" y="271.5" ></text>
</g>
<g >
<title>0xffffffffffffff80 (7 samples, 0.02%)</title><rect x="985.6" y="197" width="0.3" height="15.0" fill="rgb(231,122,29)" rx="2" ry="2" />
<text  x="988.60" y="207.5" ></text>
</g>
<g >
<title>0xffffffffffffff80 (3 samples, 0.01%)</title><rect x="995.8" y="149" width="0.1" height="15.0" fill="rgb(231,122,29)" rx="2" ry="2" />
<text  x="998.78" y="159.5" ></text>
</g>
<g >
<title>0xffffffff91f5f72c (21 samples, 0.07%)</title><rect x="991.6" y="117" width="0.8" height="15.0" fill="rgb(244,180,43)" rx="2" ry="2" />
<text  x="994.60" y="127.5" ></text>
</g>
<g >
<title>0xffffffffffffff80 (13 samples, 0.04%)</title><rect x="998.2" y="213" width="0.5" height="15.0" fill="rgb(231,122,29)" rx="2" ry="2" />
<text  x="1001.16" y="223.5" ></text>
</g>
<g >
<title>0xffffffff91f8fca0 (3 samples, 0.01%)</title><rect x="987.5" y="165" width="0.1" height="15.0" fill="rgb(216,52,12)" rx="2" ry="2" />
<text  x="990.51" y="175.5" ></text>
</g>
<g >
<title>0xffffffff93200f0b (9 samples, 0.03%)</title><rect x="849.5" y="309" width="0.4" height="15.0" fill="rgb(214,42,10)" rx="2" ry="2" />
<text  x="852.55" y="319.5" ></text>
</g>
<g >
<title>0xffffffff930988f8 (3 samples, 0.01%)</title><rect x="997.9" y="229" width="0.1" height="15.0" fill="rgb(236,146,35)" rx="2" ry="2" />
<text  x="1000.92" y="239.5" ></text>
</g>
<g >
<title>0xffffffff93098931 (13 samples, 0.04%)</title><rect x="998.2" y="229" width="0.5" height="15.0" fill="rgb(205,0,0)" rx="2" ry="2" />
<text  x="1001.16" y="239.5" ></text>
</g>
<g >
<title>0xffffffff91f8fcf7 (3 samples, 0.01%)</title><rect x="988.1" y="149" width="0.1" height="15.0" fill="rgb(238,156,37)" rx="2" ry="2" />
<text  x="991.13" y="159.5" ></text>
</g>
<g >
<title>0xffffffffffffff80 (3 samples, 0.01%)</title><rect x="987.5" y="149" width="0.1" height="15.0" fill="rgb(231,122,29)" rx="2" ry="2" />
<text  x="990.51" y="159.5" ></text>
</g>
<g >
<title>0xffffffffffffff80 (3 samples, 0.01%)</title><rect x="987.0" y="149" width="0.2" height="15.0" fill="rgb(231,122,29)" rx="2" ry="2" />
<text  x="990.04" y="159.5" ></text>
</g>
<g >
<title>0xffffffff91f63b70 (3 samples, 0.01%)</title><rect x="987.9" y="149" width="0.2" height="15.0" fill="rgb(236,145,34)" rx="2" ry="2" />
<text  x="990.94" y="159.5" ></text>
</g>
<g >
<title>0xffffffff91face3b (32 samples, 0.11%)</title><rect x="989.3" y="85" width="1.3" height="15.0" fill="rgb(232,125,29)" rx="2" ry="2" />
<text  x="992.34" y="95.5" ></text>
</g>
<g >
<title>0xffffffff91f8fd76 (4 samples, 0.01%)</title><rect x="988.4" y="149" width="0.2" height="15.0" fill="rgb(242,172,41)" rx="2" ry="2" />
<text  x="991.44" y="159.5" ></text>
</g>
<g >
<title>0xffffffff91f63b82 (53 samples, 0.18%)</title><rect x="989.1" y="133" width="2.1" height="15.0" fill="rgb(217,56,13)" rx="2" ry="2" />
<text  x="992.11" y="143.5" ></text>
</g>
<g >
<title>0xffffffff920258e4 (203 samples, 0.67%)</title><rect x="987.9" y="165" width="7.9" height="15.0" fill="rgb(240,162,38)" rx="2" ry="2" />
<text  x="990.86" y="175.5" ></text>
</g>
<g >
<title>0xffffffff91f6ffc7 (6 samples, 0.02%)</title><rect x="992.9" y="101" width="0.2" height="15.0" fill="rgb(251,215,51)" rx="2" ry="2" />
<text  x="995.89" y="111.5" ></text>
</g>
<g >
<title> 0xfffffffffffffe00 (32 samples, 0.11%)</title><rect x="849.9" y="325" width="1.2" height="15.0" fill="rgb(233,129,30)" rx="2" ry="2" />
<text  x="852.90" y="335.5" ></text>
</g>
<g >
<title>clock_gettime@@GLIBC_2.17 (391 samples, 1.29%)</title><rect x="984.1" y="309" width="15.3" height="15.0" fill="rgb(250,209,50)" rx="2" ry="2" />
<text  x="987.11" y="319.5" ></text>
</g>
<g >
<title>0xffffffffffffff80 (5 samples, 0.02%)</title><rect x="987.7" y="149" width="0.2" height="15.0" fill="rgb(231,122,29)" rx="2" ry="2" />
<text  x="990.66" y="159.5" ></text>
</g>
<g >
<title>0xffffffffffffff80 (15 samples, 0.05%)</title><rect x="998.7" y="245" width="0.6" height="15.0" fill="rgb(231,122,29)" rx="2" ry="2" />
<text  x="1001.74" y="255.5" ></text>
</g>
<g >
<title>0xffffffffffffff80 (6 samples, 0.02%)</title><rect x="992.9" y="85" width="0.2" height="15.0" fill="rgb(231,122,29)" rx="2" ry="2" />
<text  x="995.89" y="95.5" ></text>
</g>
<g >
<title>0xffffffff91f63bea (22 samples, 0.07%)</title><rect x="991.6" y="133" width="0.9" height="15.0" fill="rgb(222,82,19)" rx="2" ry="2" />
<text  x="994.60" y="143.5" ></text>
</g>
<g >
<title>0xffffffff91e6dc30 (20 samples, 0.07%)</title><rect x="991.6" y="85" width="0.8" height="15.0" fill="rgb(245,188,45)" rx="2" ry="2" />
<text  x="994.60" y="95.5" ></text>
</g>
<g >
<title>0xffffffff92023324 (46 samples, 0.15%)</title><rect x="996.1" y="213" width="1.8" height="15.0" fill="rgb(214,45,10)" rx="2" ry="2" />
<text  x="999.09" y="223.5" ></text>
</g>
<g >
<title>0xffffffff91eb3126 (8 samples, 0.03%)</title><rect x="849.5" y="277" width="0.4" height="15.0" fill="rgb(218,64,15)" rx="2" ry="2" />
<text  x="852.55" y="287.5" ></text>
</g>
<g >
<title>linpacksp (30,244 samples, 100.00%)</title><rect x="10.0" y="357" width="1180.0" height="15.0" fill="rgb(229,113,27)" rx="2" ry="2" />
<text  x="13.00" y="367.5" >linpacksp</text>
</g>
<g >
<title>0xffffffffffffff80 (5 samples, 0.02%)</title><rect x="993.5" y="69" width="0.2" height="15.0" fill="rgb(231,122,29)" rx="2" ry="2" />
<text  x="996.52" y="79.5" ></text>
</g>
<g >
<title>0xffffffff91f9d6c0 (21 samples, 0.07%)</title><rect x="991.6" y="101" width="0.8" height="15.0" fill="rgb(250,210,50)" rx="2" ry="2" />
<text  x="994.60" y="111.5" ></text>
</g>
<g >
<title>0xffffffff91fa188f (11 samples, 0.04%)</title><rect x="994.2" y="85" width="0.4" height="15.0" fill="rgb(237,150,36)" rx="2" ry="2" />
<text  x="997.22" y="95.5" ></text>
</g>
<g >
<title>0xffffffff91f7023b (5 samples, 0.02%)</title><rect x="993.1" y="101" width="0.2" height="15.0" fill="rgb(212,34,8)" rx="2" ry="2" />
<text  x="996.13" y="111.5" ></text>
</g>
<g >
<title>0xffffffff920232ed (244 samples, 0.81%)</title><rect x="986.5" y="213" width="9.6" height="15.0" fill="rgb(231,123,29)" rx="2" ry="2" />
<text  x="989.53" y="223.5" ></text>
</g>
<g >
<title>0xffffffff930a9288 (3 samples, 0.01%)</title><rect x="991.3" y="117" width="0.1" height="15.0" fill="rgb(207,13,3)" rx="2" ry="2" />
<text  x="994.29" y="127.5" ></text>
</g>
<g >
<title>0xffffffff91eb3126 (3 samples, 0.01%)</title><rect x="1189.9" y="277" width="0.1" height="15.0" fill="rgb(218,64,15)" rx="2" ry="2" />
<text  x="1192.88" y="287.5" ></text>
</g>
<g >
<title>0xffffffff9201511f (3 samples, 0.01%)</title><rect x="1189.9" y="245" width="0.1" height="15.0" fill="rgb(254,229,54)" rx="2" ry="2" />
<text  x="1192.88" y="255.5" ></text>
</g>
<g >
<title>0xffffffffffffff80 (17 samples, 0.06%)</title><rect x="985.9" y="197" width="0.6" height="15.0" fill="rgb(231,122,29)" rx="2" ry="2" />
<text  x="988.87" y="207.5" ></text>
</g>
<g >
<title>0xffffffffffffff80 (7 samples, 0.02%)</title><rect x="995.5" y="133" width="0.2" height="15.0" fill="rgb(231,122,29)" rx="2" ry="2" />
<text  x="998.47" y="143.5" ></text>
</g>
<g >
<title>0xffffffff9309125a (22 samples, 0.07%)</title><rect x="997.9" y="245" width="0.8" height="15.0" fill="rgb(222,80,19)" rx="2" ry="2" />
<text  x="1000.89" y="255.5" ></text>
</g>
<g >
<title>0xffffffff91e0bab4 (317 samples, 1.05%)</title><rect x="985.5" y="229" width="12.4" height="15.0" fill="rgb(231,119,28)" rx="2" ry="2" />
<text  x="988.52" y="239.5" ></text>
</g>
<g >
<title>0xffffffffffffff80 (12 samples, 0.04%)</title><rect x="990.6" y="85" width="0.5" height="15.0" fill="rgb(231,122,29)" rx="2" ry="2" />
<text  x="993.59" y="95.5" ></text>
</g>
<g >
<title>0xffffffff91f3e653 (3 samples, 0.01%)</title><rect x="987.4" y="165" width="0.1" height="15.0" fill="rgb(210,26,6)" rx="2" ry="2" />
<text  x="990.35" y="175.5" ></text>
</g>
<g >
<title>0xffffffffffffff80 (3 samples, 0.01%)</title><rect x="997.9" y="213" width="0.1" height="15.0" fill="rgb(231,122,29)" rx="2" ry="2" />
<text  x="1000.92" y="223.5" ></text>
</g>
<g >
<title>0xffffffff9200dfb0 (3 samples, 0.01%)</title><rect x="996.1" y="197" width="0.1" height="15.0" fill="rgb(247,196,46)" rx="2" ry="2" />
<text  x="999.09" y="207.5" ></text>
</g>
<g >
<title>0xffffffff91fa1853 (3 samples, 0.01%)</title><rect x="994.0" y="85" width="0.1" height="15.0" fill="rgb(236,145,34)" rx="2" ry="2" />
<text  x="996.98" y="95.5" ></text>
</g>
<g >
<title>daxpy_r.part.0.constprop.0 (11,298 samples, 37.36%)</title><rect x="10.2" y="341" width="440.8" height="15.0" fill="rgb(205,4,1)" rx="2" ry="2" />
<text  x="13.16" y="351.5" >daxpy_r.part.0.constprop.0</text>
</g>
<g >
<title>0xffffffff91f63bb0 (10 samples, 0.03%)</title><rect x="991.2" y="133" width="0.4" height="15.0" fill="rgb(208,17,4)" rx="2" ry="2" />
<text  x="994.21" y="143.5" ></text>
</g>
<g >
<title>0xffffffffffffff80 (3 samples, 0.01%)</title><rect x="988.1" y="133" width="0.1" height="15.0" fill="rgb(231,122,29)" rx="2" ry="2" />
<text  x="991.13" y="143.5" ></text>
</g>
<g >
<title>0xfffffffffffffe00 (4 samples, 0.01%)</title><rect x="999.4" y="309" width="0.1" height="15.0" fill="rgb(239,160,38)" rx="2" ry="2" />
<text  x="1002.37" y="319.5" ></text>
</g>
<g >
<title>0xffffffff91f69387 (6 samples, 0.02%)</title><rect x="849.6" y="197" width="0.3" height="15.0" fill="rgb(249,206,49)" rx="2" ry="2" />
<text  x="852.62" y="207.5" ></text>
</g>
<g >
<title>0x767e75392ede (388 samples, 1.28%)</title><rect x="984.2" y="293" width="15.1" height="15.0" fill="rgb(247,194,46)" rx="2" ry="2" />
<text  x="987.19" y="303.5" ></text>
</g>
<g >
<title>0xfffffffffffffe00 (11,204 samples, 37.05%)</title><rect x="13.8" y="325" width="437.2" height="15.0" fill="rgb(239,160,38)" rx="2" ry="2" />
<text  x="16.82" y="335.5" >0xfffffffffffffe00</text>
</g>
<g >
<title>0xffffffff91f7028f (10 samples, 0.03%)</title><rect x="993.5" y="101" width="0.4" height="15.0" fill="rgb(254,226,54)" rx="2" ry="2" />
<text  x="996.52" y="111.5" ></text>
</g>
<g >
<title>0xffffffff9309124e (318 samples, 1.05%)</title><rect x="985.5" y="245" width="12.4" height="15.0" fill="rgb(253,221,52)" rx="2" ry="2" />
<text  x="988.48" y="255.5" ></text>
</g>
<g >
<title>0xffffffff91f7f1d9 (4 samples, 0.01%)</title><rect x="849.7" y="165" width="0.1" height="15.0" fill="rgb(218,61,14)" rx="2" ry="2" />
<text  x="852.66" y="175.5" ></text>
</g>
<g >
<title> 0xfffffffffffffe00 (31 samples, 0.10%)</title><rect x="999.5" y="325" width="1.2" height="15.0" fill="rgb(233,129,30)" rx="2" ry="2" />
<text  x="1002.52" y="335.5" ></text>
</g>
<g >
<title>0xffffffff930955f8 (16 samples, 0.05%)</title><rect x="991.6" y="53" width="0.6" height="15.0" fill="rgb(225,94,22)" rx="2" ry="2" />
<text  x="994.60" y="63.5" ></text>
</g>
<g >
<title>0xffffffff91f63bfe (69 samples, 0.23%)</title><rect x="992.5" y="133" width="2.7" height="15.0" fill="rgb(240,163,39)" rx="2" ry="2" />
<text  x="995.46" y="143.5" ></text>
</g>
<g >
<title>daxpy_ur.part.0.constprop.0 (10,225 samples, 33.81%)</title><rect x="451.0" y="341" width="398.9" height="15.0" fill="rgb(250,207,49)" rx="2" ry="2" />
<text  x="453.96" y="351.5" >daxpy_ur.part.0.constprop.0</text>
</g>
<g >
<title>0xffffffff92016078 (8 samples, 0.03%)</title><rect x="849.5" y="261" width="0.4" height="15.0" fill="rgb(213,37,9)" rx="2" ry="2" />
<text  x="852.55" y="271.5" ></text>
</g>
<g >
<title>0xffffffff9269f57e (17 samples, 0.06%)</title><rect x="997.1" y="181" width="0.6" height="15.0" fill="rgb(239,159,38)" rx="2" ry="2" />
<text  x="1000.07" y="191.5" ></text>
</g>
<g >
<title>0xffffffff91f7036a (18 samples, 0.06%)</title><rect x="994.0" y="101" width="0.7" height="15.0" fill="rgb(243,175,41)" rx="2" ry="2" />
<text  x="996.98" y="111.5" ></text>
</g>
<g >
<title>0xffffffff91f7038a (7 samples, 0.02%)</title><rect x="994.8" y="101" width="0.3" height="15.0" fill="rgb(230,115,27)" rx="2" ry="2" />
<text  x="997.84" y="111.5" ></text>
</g>
<g >
<title>all (30,244 samples, 100%)</title><rect x="10.0" y="373" width="1180.0" height="15.0" fill="rgb(213,39,9)" rx="2" ry="2" />
<text  x="13.00" y="383.5" ></text>
</g>
<g >
<title>0xffffffff9269f579 (21 samples, 0.07%)</title><rect x="996.2" y="181" width="0.9" height="15.0" fill="rgb(223,87,20)" rx="2" ry="2" />
<text  x="999.25" y="191.5" ></text>
</g>
<g >
<title>0xffffffff920232e0 (17 samples, 0.06%)</title><rect x="985.9" y="213" width="0.6" height="15.0" fill="rgb(217,58,14)" rx="2" ry="2" />
<text  x="988.87" y="223.5" ></text>
</g>
<g >
<title>0xffffffffffffff80 (4 samples, 0.01%)</title><rect x="988.9" y="117" width="0.1" height="15.0" fill="rgb(231,122,29)" rx="2" ry="2" />
<text  x="991.87" y="127.5" ></text>
</g>
<g >
<title>0xffffffffffffff80 (21 samples, 0.07%)</title><rect x="996.2" y="165" width="0.9" height="15.0" fill="rgb(231,122,29)" rx="2" ry="2" />
<text  x="999.25" y="175.5" ></text>
</g>
<g >
<title>0xffffffff91f63b2d (5 samples, 0.02%)</title><rect x="988.8" y="133" width="0.2" height="15.0" fill="rgb(233,128,30)" rx="2" ry="2" />
<text  x="991.83" y="143.5" ></text>
</g>
<g >
<title>0xffffffffffffff80 (3 samples, 0.01%)</title><rect x="989.1" y="69" width="0.1" height="15.0" fill="rgb(231,122,29)" rx="2" ry="2" />
<text  x="992.11" y="79.5" ></text>
</g>
<g >
<title>0xffffffffffffff80 (11 samples, 0.04%)</title><rect x="994.2" y="69" width="0.4" height="15.0" fill="rgb(231,122,29)" rx="2" ry="2" />
<text  x="997.22" y="79.5" ></text>
</g>
<g >
<title>0xffffffff932001c4 (15 samples, 0.05%)</title><rect x="998.7" y="261" width="0.6" height="15.0" fill="rgb(224,88,21)" rx="2" ry="2" />
<text  x="1001.74" y="271.5" ></text>
</g>
<g >
<title> 0xfffffffffffffe00 (94 samples, 0.31%)</title><rect x="10.2" y="325" width="3.6" height="15.0" fill="rgb(233,129,30)" rx="2" ry="2" />
<text  x="13.16" y="335.5" ></text>
</g>
<g >
<title>0xffffffff91f7f5ed (6 samples, 0.02%)</title><rect x="849.6" y="181" width="0.3" height="15.0" fill="rgb(208,15,3)" rx="2" ry="2" />
<text  x="852.62" y="191.5" ></text>
</g>
<g >
<title>0xffffffff9201511f (8 samples, 0.03%)</title><rect x="849.5" y="245" width="0.4" height="15.0" fill="rgb(254,229,54)" rx="2" ry="2" />
<text  x="852.55" y="255.5" ></text>
</g>
<g >
<title>0xffffffff91f699b5 (5 samples, 0.02%)</title><rect x="993.5" y="85" width="0.2" height="15.0" fill="rgb(252,219,52)" rx="2" ry="2" />
<text  x="996.52" y="95.5" ></text>
</g>
<g >
<title>0xffffffff920258ec (3 samples, 0.01%)</title><rect x="995.8" y="165" width="0.1" height="15.0" fill="rgb(236,145,34)" rx="2" ry="2" />
<text  x="998.78" y="175.5" ></text>
</g>
<g >
<title>0xffffffffffffff80 (5 samples, 0.02%)</title><rect x="991.4" y="117" width="0.2" height="15.0" fill="rgb(231,122,29)" rx="2" ry="2" />
<text  x="994.41" y="127.5" ></text>
</g>
<g >
<title>0xffffffffffffff80 (3 samples, 0.01%)</title><rect x="996.1" y="181" width="0.1" height="15.0" fill="rgb(231,122,29)" rx="2" ry="2" />
<text  x="999.09" y="191.5" ></text>
</g>
<g >
<title>0xffffffff9200dfcd (39 samples, 0.13%)</title><rect x="996.2" y="197" width="1.6" height="15.0" fill="rgb(205,1,0)" rx="2" ry="2" />
<text  x="999.25" y="207.5" ></text>
</g>
<g >
<title>0xffffffff92025b93 (242 samples, 0.80%)</title><rect x="986.6" y="197" width="9.5" height="15.0" fill="rgb(209,21,5)" rx="2" ry="2" />
<text  x="989.61" y="207.5" ></text>
</g>
<g >
<title>0xffffffff9202d1d7 (8 samples, 0.03%)</title><rect x="849.5" y="229" width="0.4" height="15.0" fill="rgb(218,64,15)" rx="2" ry="2" />
<text  x="852.55" y="239.5" ></text>
</g>
<g >
<title>0xfffffffffffffe00 (10,138 samples, 33.52%)</title><rect x="454.4" y="325" width="395.5" height="15.0" fill="rgb(239,160,38)" rx="2" ry="2" />
<text  x="457.35" y="335.5" >0xfffffffffffffe00</text>
</g>
<g >
<title>0xffffffff91f8fd93 (3 samples, 0.01%)</title><rect x="988.6" y="149" width="0.1" height="15.0" fill="rgb(249,202,48)" rx="2" ry="2" />
<text  x="991.60" y="159.5" ></text>
</g>
<g >
<title>0xffffffff91f5eb32 (38 samples, 0.13%)</title><rect x="989.1" y="117" width="1.5" height="15.0" fill="rgb(233,128,30)" rx="2" ry="2" />
<text  x="992.11" y="127.5" ></text>
</g>
<g >
<title>0xffffffffffffff80 (5 samples, 0.02%)</title><rect x="992.6" y="85" width="0.2" height="15.0" fill="rgb(231,122,29)" rx="2" ry="2" />
<text  x="995.58" y="95.5" ></text>
</g>
<g >
<title>0xffffffffffffff80 (32 samples, 0.11%)</title><rect x="989.3" y="69" width="1.3" height="15.0" fill="rgb(231,122,29)" rx="2" ry="2" />
<text  x="992.34" y="79.5" ></text>
</g>
<g >
<title>0xffffffff930a91ce (38 samples, 0.13%)</title><rect x="989.1" y="101" width="1.5" height="15.0" fill="rgb(245,188,45)" rx="2" ry="2" />
<text  x="992.11" y="111.5" ></text>
</g>
<g >
<title>matgen (4,882 samples, 16.14%)</title><rect x="999.5" y="341" width="190.5" height="15.0" fill="rgb(205,0,0)" rx="2" ry="2" />
<text  x="1002.52" y="351.5" >matgen</text>
</g>
<g >
<title>0xffffffff9202584f (5 samples, 0.02%)</title><rect x="987.7" y="165" width="0.2" height="15.0" fill="rgb(233,132,31)" rx="2" ry="2" />
<text  x="990.66" y="175.5" ></text>
</g>
<g >
<title>0xffffffff9309891e (3 samples, 0.01%)</title><rect x="998.0" y="229" width="0.2" height="15.0" fill="rgb(232,124,29)" rx="2" ry="2" />
<text  x="1001.04" y="239.5" ></text>
</g>
<g >
<title>0xffffffff92025af4 (7 samples, 0.02%)</title><rect x="987.0" y="181" width="0.3" height="15.0" fill="rgb(218,64,15)" rx="2" ry="2" />
<text  x="990.00" y="191.5" ></text>
</g>
</g>
</svg>
