<?xml version="1.0" standalone="no"?>
<!DOCTYPE svg PUBLIC "-//W3C//DTD SVG 1.1//EN" "http://www.w3.org/Graphics/SVG/1.1/DTD/svg11.dtd">
<svg version="1.1" width="1200" height="422" onload="init(evt)" viewBox="0 0 1200 422" xmlns="http://www.w3.org/2000/svg" xmlns:xlink="http://www.w3.org/1999/xlink">
<!-- Flame graph stack visualization. See https://github.com/brendangregg/FlameGraph for latest version, and http://www.brendangregg.com/flamegraphs.html for examples. -->
<!-- NOTES:  -->
<defs>
	<linearGradient id="background" y1="0" y2="1" x1="0" x2="0" >
		<stop stop-color="#eeeeee" offset="5%" />
		<stop stop-color="#eeeeb0" offset="95%" />
	</linearGradient>
</defs>
<style type="text/css">
	text { font-family:Verdana; font-size:12px; fill:rgb(0,0,0); }
	#search, #ignorecase { opacity:0.1; cursor:pointer; }
	#search:hover, #search.show, #ignorecase:hover, #ignorecase.show { opacity:1; }
	#subtitle { text-anchor:middle; font-color:rgb(160,160,160); }
	#title { text-anchor:middle; font-size:17px}
	#unzoom { cursor:pointer; }
	#frames > *:hover { stroke:black; stroke-width:0.5; cursor:pointer; }
	.hide { display:none; }
	.parent { opacity:0.5; }
</style>
<script type="text/ecmascript">
<![CDATA[
	"use strict";
	var details, searchbtn, unzoombtn, matchedtxt, svg, searching, currentSearchTerm, ignorecase, ignorecaseBtn;
	function init(evt) {
		details = document.getElementById("details").firstChild;
		searchbtn = document.getElementById("search");
		ignorecaseBtn = document.getElementById("ignorecase");
		unzoombtn = document.getElementById("unzoom");
		matchedtxt = document.getElementById("matched");
		svg = document.getElementsByTagName("svg")[0];
		searching = 0;
		currentSearchTerm = null;

		// use GET parameters to restore a flamegraphs state.
		var params = get_params();
		if (params.x && params.y)
			zoom(find_group(document.querySelector('[x="' + params.x + '"][y="' + params.y + '"]')));
                if (params.s) search(params.s);
	}

	// event listeners
	window.addEventListener("click", function(e) {
		var target = find_group(e.target);
		if (target) {
			if (target.nodeName == "a") {
				if (e.ctrlKey === false) return;
				e.preventDefault();
			}
			if (target.classList.contains("parent")) unzoom(true);
			zoom(target);
			if (!document.querySelector('.parent')) {
				// we have basically done a clearzoom so clear the url
				var params = get_params();
				if (params.x) delete params.x;
				if (params.y) delete params.y;
				history.replaceState(null, null, parse_params(params));
				unzoombtn.classList.add("hide");
				return;
			}

			// set parameters for zoom state
			var el = target.querySelector("rect");
			if (el && el.attributes && el.attributes.y && el.attributes._orig_x) {
				var params = get_params()
				params.x = el.attributes._orig_x.value;
				params.y = el.attributes.y.value;
				history.replaceState(null, null, parse_params(params));
			}
		}
		else if (e.target.id == "unzoom") clearzoom();
		else if (e.target.id == "search") search_prompt();
		else if (e.target.id == "ignorecase") toggle_ignorecase();
	}, false)

	// mouse-over for info
	// show
	window.addEventListener("mouseover", function(e) {
		var target = find_group(e.target);
		if (target) details.nodeValue = "Function: " + g_to_text(target);
	}, false)

	// clear
	window.addEventListener("mouseout", function(e) {
		var target = find_group(e.target);
		if (target) details.nodeValue = ' ';
	}, false)

	// ctrl-F for search
	// ctrl-I to toggle case-sensitive search
	window.addEventListener("keydown",function (e) {
		if (e.keyCode === 114 || (e.ctrlKey && e.keyCode === 70)) {
			e.preventDefault();
			search_prompt();
		}
		else if (e.ctrlKey && e.keyCode === 73) {
			e.preventDefault();
			toggle_ignorecase();
		}
	}, false)

	// functions
	function get_params() {
		var params = {};
		var paramsarr = window.location.search.substr(1).split('&');
		for (var i = 0; i < paramsarr.length; ++i) {
			var tmp = paramsarr[i].split("=");
			if (!tmp[0] || !tmp[1]) continue;
			params[tmp[0]]  = decodeURIComponent(tmp[1]);
		}
		return params;
	}
	function parse_params(params) {
		var uri = "?";
		for (var key in params) {
			uri += key + '=' + encodeURIComponent(params[key]) + '&';
		}
		if (uri.slice(-1) == "&")
			uri = uri.substring(0, uri.length - 1);
		if (uri == '?')
			uri = window.location.href.split('?')[0];
		return uri;
	}
	function find_child(node, selector) {
		var children = node.querySelectorAll(selector);
		if (children.length) return children[0];
	}
	function find_group(node) {
		var parent = node.parentElement;
		if (!parent) return;
		if (parent.id == "frames") return node;
		return find_group(parent);
	}
	function orig_save(e, attr, val) {
		if (e.attributes["_orig_" + attr] != undefined) return;
		if (e.attributes[attr] == undefined) return;
		if (val == undefined) val = e.attributes[attr].value;
		e.setAttribute("_orig_" + attr, val);
	}
	function orig_load(e, attr) {
		if (e.attributes["_orig_"+attr] == undefined) return;
		e.attributes[attr].value = e.attributes["_orig_" + attr].value;
		e.removeAttribute("_orig_"+attr);
	}
	function g_to_text(e) {
		var text = find_child(e, "title").firstChild.nodeValue;
		return (text)
	}
	function g_to_func(e) {
		var func = g_to_text(e);
		// if there's any manipulation we want to do to the function
		// name before it's searched, do it here before returning.
		return (func);
	}
	function update_text(e) {
		var r = find_child(e, "rect");
		var t = find_child(e, "text");
		var w = parseFloat(r.attributes.width.value) -3;
		var txt = find_child(e, "title").textContent.replace(/\([^(]*\)$/,"");
		t.attributes.x.value = parseFloat(r.attributes.x.value) + 3;

		// Smaller than this size won't fit anything
		if (w < 2 * 12 * 0.59) {
			t.textContent = "";
			return;
		}

		t.textContent = txt;
		var sl = t.getSubStringLength(0, txt.length);
		// check if only whitespace or if we can fit the entire string into width w
		if (/^ *$/.test(txt) || sl < w)
			return;

		// this isn't perfect, but gives a good starting point
		// and avoids calling getSubStringLength too often
		var start = Math.floor((w/sl) * txt.length);
		for (var x = start; x > 0; x = x-2) {
			if (t.getSubStringLength(0, x + 2) <= w) {
				t.textContent = txt.substring(0, x) + "..";
				return;
			}
		}
		t.textContent = "";
	}

	// zoom
	function zoom_reset(e) {
		if (e.attributes != undefined) {
			orig_load(e, "x");
			orig_load(e, "width");
		}
		if (e.childNodes == undefined) return;
		for (var i = 0, c = e.childNodes; i < c.length; i++) {
			zoom_reset(c[i]);
		}
	}
	function zoom_child(e, x, ratio) {
		if (e.attributes != undefined) {
			if (e.attributes.x != undefined) {
				orig_save(e, "x");
				e.attributes.x.value = (parseFloat(e.attributes.x.value) - x - 10) * ratio + 10;
				if (e.tagName == "text")
					e.attributes.x.value = find_child(e.parentNode, "rect[x]").attributes.x.value + 3;
			}
			if (e.attributes.width != undefined) {
				orig_save(e, "width");
				e.attributes.width.value = parseFloat(e.attributes.width.value) * ratio;
			}
		}

		if (e.childNodes == undefined) return;
		for (var i = 0, c = e.childNodes; i < c.length; i++) {
			zoom_child(c[i], x - 10, ratio);
		}
	}
	function zoom_parent(e) {
		if (e.attributes) {
			if (e.attributes.x != undefined) {
				orig_save(e, "x");
				e.attributes.x.value = 10;
			}
			if (e.attributes.width != undefined) {
				orig_save(e, "width");
				e.attributes.width.value = parseInt(svg.width.baseVal.value) - (10 * 2);
			}
		}
		if (e.childNodes == undefined) return;
		for (var i = 0, c = e.childNodes; i < c.length; i++) {
			zoom_parent(c[i]);
		}
	}
	function zoom(node) {
		var attr = find_child(node, "rect").attributes;
		var width = parseFloat(attr.width.value);
		var xmin = parseFloat(attr.x.value);
		var xmax = parseFloat(xmin + width);
		var ymin = parseFloat(attr.y.value);
		var ratio = (svg.width.baseVal.value - 2 * 10) / width;

		// XXX: Workaround for JavaScript float issues (fix me)
		var fudge = 0.0001;

		unzoombtn.classList.remove("hide");

		var el = document.getElementById("frames").children;
		for (var i = 0; i < el.length; i++) {
			var e = el[i];
			var a = find_child(e, "rect").attributes;
			var ex = parseFloat(a.x.value);
			var ew = parseFloat(a.width.value);
			var upstack;
			// Is it an ancestor
			if (0 == 0) {
				upstack = parseFloat(a.y.value) > ymin;
			} else {
				upstack = parseFloat(a.y.value) < ymin;
			}
			if (upstack) {
				// Direct ancestor
				if (ex <= xmin && (ex+ew+fudge) >= xmax) {
					e.classList.add("parent");
					zoom_parent(e);
					update_text(e);
				}
				// not in current path
				else
					e.classList.add("hide");
			}
			// Children maybe
			else {
				// no common path
				if (ex < xmin || ex + fudge >= xmax) {
					e.classList.add("hide");
				}
				else {
					zoom_child(e, xmin, ratio);
					update_text(e);
				}
			}
		}
		search();
	}
	function unzoom(dont_update_text) {
		unzoombtn.classList.add("hide");
		var el = document.getElementById("frames").children;
		for(var i = 0; i < el.length; i++) {
			el[i].classList.remove("parent");
			el[i].classList.remove("hide");
			zoom_reset(el[i]);
			if(!dont_update_text) update_text(el[i]);
		}
		search();
	}
	function clearzoom() {
		unzoom();

		// remove zoom state
		var params = get_params();
		if (params.x) delete params.x;
		if (params.y) delete params.y;
		history.replaceState(null, null, parse_params(params));
	}

	// search
	function toggle_ignorecase() {
		ignorecase = !ignorecase;
		if (ignorecase) {
			ignorecaseBtn.classList.add("show");
		} else {
			ignorecaseBtn.classList.remove("show");
		}
		reset_search();
		search();
	}
	function reset_search() {
		var el = document.querySelectorAll("#frames rect");
		for (var i = 0; i < el.length; i++) {
			orig_load(el[i], "fill")
		}
		var params = get_params();
		delete params.s;
		history.replaceState(null, null, parse_params(params));
	}
	function search_prompt() {
		if (!searching) {
			var term = prompt("Enter a search term (regexp " +
			    "allowed, eg: ^ext4_)"
			    + (ignorecase ? ", ignoring case" : "")
			    + "\nPress Ctrl-i to toggle case sensitivity", "");
			if (term != null) search(term);
		} else {
			reset_search();
			searching = 0;
			currentSearchTerm = null;
			searchbtn.classList.remove("show");
			searchbtn.firstChild.nodeValue = "Search"
			matchedtxt.classList.add("hide");
			matchedtxt.firstChild.nodeValue = ""
		}
	}
	function search(term) {
		if (term) currentSearchTerm = term;

		var re = new RegExp(currentSearchTerm, ignorecase ? 'i' : '');
		var el = document.getElementById("frames").children;
		var matches = new Object();
		var maxwidth = 0;
		for (var i = 0; i < el.length; i++) {
			var e = el[i];
			var func = g_to_func(e);
			var rect = find_child(e, "rect");
			if (func == null || rect == null)
				continue;

			// Save max width. Only works as we have a root frame
			var w = parseFloat(rect.attributes.width.value);
			if (w > maxwidth)
				maxwidth = w;

			if (func.match(re)) {
				// highlight
				var x = parseFloat(rect.attributes.x.value);
				orig_save(rect, "fill");
				rect.attributes.fill.value = "rgb(230,0,230)";

				// remember matches
				if (matches[x] == undefined) {
					matches[x] = w;
				} else {
					if (w > matches[x]) {
						// overwrite with parent
						matches[x] = w;
					}
				}
				searching = 1;
			}
		}
		if (!searching)
			return;
		var params = get_params();
		params.s = currentSearchTerm;
		history.replaceState(null, null, parse_params(params));

		searchbtn.classList.add("show");
		searchbtn.firstChild.nodeValue = "Reset Search";

		// calculate percent matched, excluding vertical overlap
		var count = 0;
		var lastx = -1;
		var lastw = 0;
		var keys = Array();
		for (k in matches) {
			if (matches.hasOwnProperty(k))
				keys.push(k);
		}
		// sort the matched frames by their x location
		// ascending, then width descending
		keys.sort(function(a, b){
			return a - b;
		});
		// Step through frames saving only the biggest bottom-up frames
		// thanks to the sort order. This relies on the tree property
		// where children are always smaller than their parents.
		var fudge = 0.0001;	// JavaScript floating point
		for (var k in keys) {
			var x = parseFloat(keys[k]);
			var w = matches[keys[k]];
			if (x >= lastx + lastw - fudge) {
				count += w;
				lastx = x;
				lastw = w;
			}
		}
		// display matched percent
		matchedtxt.classList.remove("hide");
		var pct = 100 * count / maxwidth;
		if (pct != 100) pct = pct.toFixed(1)
		matchedtxt.firstChild.nodeValue = "Matched: " + pct + "%";
	}
]]>
</script>
<rect x="0.0" y="0" width="1200.0" height="422.0" fill="url(#background)"  />
<text id="title" x="600.00" y="24" >Energy Flame Graph</text>
<text id="details" x="10.00" y="405" > </text>
<text id="unzoom" x="10.00" y="24" class="hide">Reset Zoom</text>
<text id="search" x="1090.00" y="24" >Search</text>
<text id="ignorecase" x="1174.00" y="24" >ic</text>
<text id="matched" x="1090.00" y="405" > </text>
<g id="frames">
<g >
<title>0xffffffff91f699d8 (1,181,988 microwatts, 0.01%)</title><rect x="993.6" y="85" width="0.1" height="15.0" fill="rgb(220,70,16)" rx="2" ry="2" />
<text  x="996.56" y="95.5" ></text>
</g>
<g >
<title>0xffffffff91f70380 (1,130,381 microwatts, 0.01%)</title><rect x="994.6" y="101" width="0.1" height="15.0" fill="rgb(246,191,45)" rx="2" ry="2" />
<text  x="997.63" y="111.5" ></text>
</g>
<g >
<title>0xffffffff9201511f (3,486,060 microwatts, 0.03%)</title><rect x="849.5" y="245" width="0.3" height="15.0" fill="rgb(254,229,54)" rx="2" ry="2" />
<text  x="852.45" y="255.5" ></text>
</g>
<g >
<title>0xffffffffffffff80 (1,204,622 microwatts, 0.01%)</title><rect x="987.8" y="133" width="0.2" height="15.0" fill="rgb(231,122,29)" rx="2" ry="2" />
<text  x="990.85" y="143.5" ></text>
</g>
<g >
<title>0xffffffff92025048 (1,215,663 microwatts, 0.01%)</title><rect x="986.7" y="165" width="0.2" height="15.0" fill="rgb(232,127,30)" rx="2" ry="2" />
<text  x="989.74" y="175.5" ></text>
</g>
<g >
<title>0xffffffff920258e4 (87,323,249 microwatts, 0.69%)</title><rect x="987.6" y="165" width="8.1" height="15.0" fill="rgb(240,162,38)" rx="2" ry="2" />
<text  x="990.56" y="175.5" ></text>
</g>
<g >
<title>0xffffffffffffff80 (1,130,381 microwatts, 0.01%)</title><rect x="994.6" y="85" width="0.1" height="15.0" fill="rgb(231,122,29)" rx="2" ry="2" />
<text  x="997.63" y="95.5" ></text>
</g>
<g >
<title>0xffffffff91f69387 (2,615,718 microwatts, 0.02%)</title><rect x="849.5" y="197" width="0.3" height="15.0" fill="rgb(249,206,49)" rx="2" ry="2" />
<text  x="852.53" y="207.5" ></text>
</g>
<g >
<title>0xffffffff91f8fd93 (1,466,760 microwatts, 0.01%)</title><rect x="988.3" y="149" width="0.2" height="15.0" fill="rgb(249,202,48)" rx="2" ry="2" />
<text  x="991.34" y="159.5" ></text>
</g>
<g >
<title>0xffffffff91f7038a (3,164,505 microwatts, 0.03%)</title><rect x="994.7" y="101" width="0.3" height="15.0" fill="rgb(230,115,27)" rx="2" ry="2" />
<text  x="997.73" y="111.5" ></text>
</g>
<g >
<title>0xfffffffffffffe00 (4,195,270,303 microwatts, 33.34%)</title><rect x="456.4" y="325" width="393.4" height="15.0" fill="rgb(239,160,38)" rx="2" ry="2" />
<text  x="459.38" y="335.5" >0xfffffffffffffe00</text>
</g>
<g >
<title>0xffffffff930956e9 (8,113,282 microwatts, 0.06%)</title><rect x="991.4" y="69" width="0.8" height="15.0" fill="rgb(219,65,15)" rx="2" ry="2" />
<text  x="994.41" y="79.5" ></text>
</g>
<g >
<title>0xffffffffffffff80 (5,711,278 microwatts, 0.05%)</title><rect x="998.1" y="213" width="0.6" height="15.0" fill="rgb(231,122,29)" rx="2" ry="2" />
<text  x="1001.15" y="223.5" ></text>
</g>
<g >
<title>0xffffffffffffff80 (1,254,627 microwatts, 0.01%)</title><rect x="987.7" y="133" width="0.1" height="15.0" fill="rgb(231,122,29)" rx="2" ry="2" />
<text  x="990.65" y="143.5" ></text>
</g>
<g >
<title>0xffffffff9200dfcd (15,806,155 microwatts, 0.13%)</title><rect x="996.2" y="197" width="1.5" height="15.0" fill="rgb(205,1,0)" rx="2" ry="2" />
<text  x="999.25" y="207.5" ></text>
</g>
<g >
<title>0xffffffff9269f579 (8,439,713 microwatts, 0.07%)</title><rect x="996.2" y="181" width="0.8" height="15.0" fill="rgb(223,87,20)" rx="2" ry="2" />
<text  x="999.25" y="191.5" ></text>
</g>
<g >
<title>0xffffffff91f63b70 (1,254,627 microwatts, 0.01%)</title><rect x="987.7" y="149" width="0.1" height="15.0" fill="rgb(236,145,34)" rx="2" ry="2" />
<text  x="990.65" y="159.5" ></text>
</g>
<g >
<title>0xffffffff9202584f (2,071,503 microwatts, 0.02%)</title><rect x="987.4" y="165" width="0.2" height="15.0" fill="rgb(233,132,31)" rx="2" ry="2" />
<text  x="990.36" y="175.5" ></text>
</g>
<g >
<title>0xfffffffffffffe00 (1,983,099 microwatts, 0.02%)</title><rect x="999.4" y="309" width="0.2" height="15.0" fill="rgb(239,160,38)" rx="2" ry="2" />
<text  x="1002.38" y="319.5" ></text>
</g>
<g >
<title>0xffffffffffffff80 (1,291,469 microwatts, 0.01%)</title><rect x="988.9" y="69" width="0.1" height="15.0" fill="rgb(231,122,29)" rx="2" ry="2" />
<text  x="991.89" y="79.5" ></text>
</g>
<g >
<title>0xffffffff91eb3126 (1,283,188 microwatts, 0.01%)</title><rect x="1189.9" y="277" width="0.1" height="15.0" fill="rgb(218,64,15)" rx="2" ry="2" />
<text  x="1192.88" y="287.5" ></text>
</g>
<g >
<title>0xffffffffffffff80 (2,071,503 microwatts, 0.02%)</title><rect x="987.4" y="149" width="0.2" height="15.0" fill="rgb(231,122,29)" rx="2" ry="2" />
<text  x="990.36" y="159.5" ></text>
</g>
<g >
<title>0xffffffffffffff80 (1,100,249 microwatts, 0.01%)</title><rect x="992.6" y="85" width="0.1" height="15.0" fill="rgb(231,122,29)" rx="2" ry="2" />
<text  x="995.61" y="95.5" ></text>
</g>
<g >
<title>0xfffffffffffffe00 (164,805,903 microwatts, 1.31%)</title><rect x="983.9" y="277" width="15.4" height="15.0" fill="rgb(239,160,38)" rx="2" ry="2" />
<text  x="986.89" y="287.5" ></text>
</g>
<g >
<title>0xffffffffffffff80 (4,745,946 microwatts, 0.04%)</title><rect x="994.1" y="69" width="0.4" height="15.0" fill="rgb(231,122,29)" rx="2" ry="2" />
<text  x="997.06" y="79.5" ></text>
</g>
<g >
<title>0xffffffff91f5f72c (8,518,398 microwatts, 0.07%)</title><rect x="991.4" y="117" width="0.8" height="15.0" fill="rgb(244,180,43)" rx="2" ry="2" />
<text  x="994.41" y="127.5" ></text>
</g>
<g >
<title>0xffffffff91f7f1d9 (1,730,362 microwatts, 0.01%)</title><rect x="849.6" y="165" width="0.1" height="15.0" fill="rgb(218,61,14)" rx="2" ry="2" />
<text  x="852.58" y="175.5" ></text>
</g>
<g >
<title>0xffffffff93097b77 (1,283,188 microwatts, 0.01%)</title><rect x="1189.9" y="293" width="0.1" height="15.0" fill="rgb(232,124,29)" rx="2" ry="2" />
<text  x="1192.88" y="303.5" ></text>
</g>
<g >
<title>0xffffffffffffff80 (13,090,003 microwatts, 0.10%)</title><rect x="989.1" y="69" width="1.3" height="15.0" fill="rgb(231,122,29)" rx="2" ry="2" />
<text  x="992.13" y="79.5" ></text>
</g>
<g >
<title>0xfffffffffffffe00 (4,682,319,590 microwatts, 37.21%)</title><rect x="13.8" y="325" width="439.1" height="15.0" fill="rgb(239,160,38)" rx="2" ry="2" />
<text  x="16.82" y="335.5" >0xfffffffffffffe00</text>
</g>
<g >
<title>0xffffffff91f5eb32 (15,648,820 microwatts, 0.12%)</title><rect x="988.9" y="117" width="1.5" height="15.0" fill="rgb(233,128,30)" rx="2" ry="2" />
<text  x="991.89" y="127.5" ></text>
</g>
<g >
<title>0xffffffff9200dfb0 (1,339,182 microwatts, 0.01%)</title><rect x="996.1" y="197" width="0.1" height="15.0" fill="rgb(247,196,46)" rx="2" ry="2" />
<text  x="999.08" y="207.5" ></text>
</g>
<g >
<title>0xffffffff91f8fd76 (1,868,274 microwatts, 0.01%)</title><rect x="988.2" y="149" width="0.1" height="15.0" fill="rgb(242,172,41)" rx="2" ry="2" />
<text  x="991.17" y="159.5" ></text>
</g>
<g >
<title> 0xfffffffffffffe00 (12,578,330 microwatts, 0.10%)</title><rect x="999.6" y="325" width="1.1" height="15.0" fill="rgb(233,129,30)" rx="2" ry="2" />
<text  x="1002.57" y="335.5" ></text>
</g>
<g >
<title>all (12,582,258,796 microwatts, 100%)</title><rect x="10.0" y="373" width="1180.0" height="15.0" fill="rgb(213,39,9)" rx="2" ry="2" />
<text  x="13.00" y="383.5" ></text>
</g>
<g >
<title>0xffffffff92025af4 (2,729,776 microwatts, 0.02%)</title><rect x="986.7" y="181" width="0.3" height="15.0" fill="rgb(218,64,15)" rx="2" ry="2" />
<text  x="989.70" y="191.5" ></text>
</g>
<g >
<title>0xffffffffffffff80 (6,272,382 microwatts, 0.05%)</title><rect x="998.8" y="245" width="0.5" height="15.0" fill="rgb(231,122,29)" rx="2" ry="2" />
<text  x="1001.76" y="255.5" ></text>
</g>
<g >
<title>0xffffffff91f7023b (2,119,281 microwatts, 0.02%)</title><rect x="992.9" y="101" width="0.2" height="15.0" fill="rgb(212,34,8)" rx="2" ry="2" />
<text  x="995.95" y="111.5" ></text>
</g>
<g >
<title>0xffffffffffffff80 (8,439,713 microwatts, 0.07%)</title><rect x="996.2" y="165" width="0.8" height="15.0" fill="rgb(231,122,29)" rx="2" ry="2" />
<text  x="999.25" y="175.5" ></text>
</g>
<g >
<title>0xffffffff91f63bfe (29,781,260 microwatts, 0.24%)</title><rect x="992.3" y="133" width="2.8" height="15.0" fill="rgb(240,163,39)" rx="2" ry="2" />
<text  x="995.27" y="143.5" ></text>
</g>
<g >
<title>0xffffffff91f7044c (28,873,963 microwatts, 0.23%)</title><rect x="992.4" y="117" width="2.7" height="15.0" fill="rgb(236,145,34)" rx="2" ry="2" />
<text  x="995.35" y="127.5" ></text>
</g>
<g >
<title>0xffffffff920258ec (1,623,229 microwatts, 0.01%)</title><rect x="995.7" y="165" width="0.2" height="15.0" fill="rgb(236,145,34)" rx="2" ry="2" />
<text  x="998.75" y="175.5" ></text>
</g>
<g >
<title>clock_gettime@@GLIBC_2.17 (1,983,099 microwatts, 0.02%)</title><rect x="999.4" y="325" width="0.2" height="15.0" fill="rgb(250,209,50)" rx="2" ry="2" />
<text  x="1002.38" y="335.5" ></text>
</g>
<g >
<title>daxpy_r.part.0.constprop.0 (4,721,549,007 microwatts, 37.53%)</title><rect x="10.1" y="341" width="442.8" height="15.0" fill="rgb(205,4,1)" rx="2" ry="2" />
<text  x="13.14" y="351.5" >daxpy_r.part.0.constprop.0</text>
</g>
<g >
<title>0xffffffffffffff80 (2,452,612 microwatts, 0.02%)</title><rect x="992.7" y="85" width="0.2" height="15.0" fill="rgb(231,122,29)" rx="2" ry="2" />
<text  x="995.72" y="95.5" ></text>
</g>
<g >
<title>0xffffffff91fe3661 (3,291,052 microwatts, 0.03%)</title><rect x="995.4" y="149" width="0.3" height="15.0" fill="rgb(217,56,13)" rx="2" ry="2" />
<text  x="998.37" y="159.5" ></text>
</g>
<g >
<title>0xffffffff930955f8 (6,473,649 microwatts, 0.05%)</title><rect x="991.4" y="53" width="0.6" height="15.0" fill="rgb(225,94,22)" rx="2" ry="2" />
<text  x="994.41" y="63.5" ></text>
</g>
<g >
<title>0xffffffffffffff80 (1,092,240 microwatts, 0.01%)</title><rect x="993.8" y="69" width="0.1" height="15.0" fill="rgb(231,122,29)" rx="2" ry="2" />
<text  x="996.82" y="79.5" ></text>
</g>
<g >
<title>0xffffffffffffff80 (2,059,214 microwatts, 0.02%)</title><rect x="991.2" y="117" width="0.2" height="15.0" fill="rgb(231,122,29)" rx="2" ry="2" />
<text  x="994.22" y="127.5" ></text>
</g>
<g >
<title>main (1,596,757,204 microwatts, 12.69%)</title><rect x="849.8" y="341" width="149.8" height="15.0" fill="rgb(243,179,42)" rx="2" ry="2" />
<text  x="852.82" y="351.5" >main</text>
</g>
<g >
<title>0xffffffff92023324 (18,987,051 microwatts, 0.15%)</title><rect x="996.1" y="213" width="1.8" height="15.0" fill="rgb(214,45,10)" rx="2" ry="2" />
<text  x="999.08" y="223.5" ></text>
</g>
<g >
<title>linpacksp (12,582,258,796 microwatts, 100.00%)</title><rect x="10.0" y="357" width="1180.0" height="15.0" fill="rgb(229,113,27)" rx="2" ry="2" />
<text  x="13.00" y="367.5" >linpacksp</text>
</g>
<g >
<title>0xffffffff92025b1c (92,717,830 microwatts, 0.74%)</title><rect x="987.2" y="181" width="8.7" height="15.0" fill="rgb(251,212,50)" rx="2" ry="2" />
<text  x="990.20" y="191.5" ></text>
</g>
<g >
<title>0xffffffff91f8fcf7 (1,204,622 microwatts, 0.01%)</title><rect x="987.8" y="149" width="0.2" height="15.0" fill="rgb(238,156,37)" rx="2" ry="2" />
<text  x="990.85" y="159.5" ></text>
</g>
<g >
<title>0xffffffffffffff80 (1,466,760 microwatts, 0.01%)</title><rect x="988.3" y="133" width="0.2" height="15.0" fill="rgb(231,122,29)" rx="2" ry="2" />
<text  x="991.34" y="143.5" ></text>
</g>
<g >
<title>0xffffffff91f7036a (7,716,256 microwatts, 0.06%)</title><rect x="993.8" y="101" width="0.7" height="15.0" fill="rgb(243,175,41)" rx="2" ry="2" />
<text  x="996.82" y="111.5" ></text>
</g>
<g >
<title>0xffffffff91f63b82 (22,078,240 microwatts, 0.18%)</title><rect x="988.9" y="133" width="2.1" height="15.0" fill="rgb(217,56,13)" rx="2" ry="2" />
<text  x="991.89" y="143.5" ></text>
</g>
<g >
<title>0xffffffffffffff80 (1,725,061 microwatts, 0.01%)</title><rect x="988.6" y="117" width="0.2" height="15.0" fill="rgb(231,122,29)" rx="2" ry="2" />
<text  x="991.64" y="127.5" ></text>
</g>
<g >
<title>0xffffffff92016078 (1,283,188 microwatts, 0.01%)</title><rect x="1189.9" y="261" width="0.1" height="15.0" fill="rgb(213,37,9)" rx="2" ry="2" />
<text  x="1192.88" y="271.5" ></text>
</g>
<g >
<title>0xffffffffffffff80 (3,291,052 microwatts, 0.03%)</title><rect x="995.4" y="133" width="0.3" height="15.0" fill="rgb(231,122,29)" rx="2" ry="2" />
<text  x="998.37" y="143.5" ></text>
</g>
<g >
<title>daxpy_ur.part.0.constprop.0 (4,231,900,546 microwatts, 33.63%)</title><rect x="452.9" y="341" width="396.9" height="15.0" fill="rgb(250,207,49)" rx="2" ry="2" />
<text  x="455.94" y="351.5" >daxpy_ur.part.0.constprop.0</text>
</g>
<g >
<title>0xffffffff930988f8 (1,444,976 microwatts, 0.01%)</title><rect x="997.9" y="229" width="0.1" height="15.0" fill="rgb(236,146,35)" rx="2" ry="2" />
<text  x="1000.90" y="239.5" ></text>
</g>
<g >
<title>0xffffffff91f7f5ed (2,615,718 microwatts, 0.02%)</title><rect x="849.5" y="181" width="0.3" height="15.0" fill="rgb(208,15,3)" rx="2" ry="2" />
<text  x="852.53" y="191.5" ></text>
</g>
<g >
<title>0xffffffff91eb3126 (3,486,060 microwatts, 0.03%)</title><rect x="849.5" y="277" width="0.3" height="15.0" fill="rgb(218,64,15)" rx="2" ry="2" />
<text  x="852.45" y="287.5" ></text>
</g>
<g >
<title>0xffffffff9309125a (9,537,361 microwatts, 0.08%)</title><rect x="997.9" y="245" width="0.9" height="15.0" fill="rgb(222,80,19)" rx="2" ry="2" />
<text  x="1000.86" y="255.5" ></text>
</g>
<g >
<title> 0xfffffffffffffe00 (13,076,339 microwatts, 0.10%)</title><rect x="849.8" y="325" width="1.2" height="15.0" fill="rgb(233,129,30)" rx="2" ry="2" />
<text  x="852.82" y="335.5" ></text>
</g>
<g >
<title>0xffffffff91f63b2d (2,110,020 microwatts, 0.02%)</title><rect x="988.6" y="133" width="0.2" height="15.0" fill="rgb(233,128,30)" rx="2" ry="2" />
<text  x="991.60" y="143.5" ></text>
</g>
<g >
<title>0xffffffff9201511f (1,283,188 microwatts, 0.01%)</title><rect x="1189.9" y="245" width="0.1" height="15.0" fill="rgb(254,229,54)" rx="2" ry="2" />
<text  x="1192.88" y="255.5" ></text>
</g>
<g >
<title>0xffffffffffffff80 (9,016,064 microwatts, 0.07%)</title><rect x="984.4" y="245" width="0.8" height="15.0" fill="rgb(231,122,29)" rx="2" ry="2" />
<text  x="987.37" y="255.5" ></text>
</g>
<g >
<title>0xffffffff91face3b (13,090,003 microwatts, 0.10%)</title><rect x="989.1" y="85" width="1.3" height="15.0" fill="rgb(232,125,29)" rx="2" ry="2" />
<text  x="992.13" y="95.5" ></text>
</g>
<g >
<title>0xffffffff91f5eb5f (6,000,762 microwatts, 0.05%)</title><rect x="990.4" y="117" width="0.5" height="15.0" fill="rgb(234,134,32)" rx="2" ry="2" />
<text  x="993.36" y="127.5" ></text>
</g>
<g >
<title>0xffffffff930a99f7 (5,179,256 microwatts, 0.04%)</title><rect x="990.4" y="101" width="0.4" height="15.0" fill="rgb(222,78,18)" rx="2" ry="2" />
<text  x="993.36" y="111.5" ></text>
</g>
<g >
<title>0xffffffff91f63bea (9,099,047 microwatts, 0.07%)</title><rect x="991.4" y="133" width="0.9" height="15.0" fill="rgb(222,82,19)" rx="2" ry="2" />
<text  x="994.41" y="143.5" ></text>
</g>
<g >
<title>0xffffffff91fa1853 (1,092,240 microwatts, 0.01%)</title><rect x="993.8" y="85" width="0.1" height="15.0" fill="rgb(236,145,34)" rx="2" ry="2" />
<text  x="996.82" y="95.5" ></text>
</g>
<g >
<title>0xffffffff93098931 (5,711,278 microwatts, 0.05%)</title><rect x="998.1" y="229" width="0.6" height="15.0" fill="rgb(205,0,0)" rx="2" ry="2" />
<text  x="1001.15" y="239.5" ></text>
</g>
<g >
<title>0xffffffffffffff80 (1,339,182 microwatts, 0.01%)</title><rect x="996.1" y="181" width="0.1" height="15.0" fill="rgb(231,122,29)" rx="2" ry="2" />
<text  x="999.08" y="191.5" ></text>
</g>
<g >
<title>0xffffffffffffff80 (1,257,780 microwatts, 0.01%)</title><rect x="987.2" y="149" width="0.1" height="15.0" fill="rgb(231,122,29)" rx="2" ry="2" />
<text  x="990.20" y="159.5" ></text>
</g>
<g >
<title>0xffffffff91face1b (1,291,469 microwatts, 0.01%)</title><rect x="988.9" y="85" width="0.1" height="15.0" fill="rgb(245,184,44)" rx="2" ry="2" />
<text  x="991.89" y="95.5" ></text>
</g>
<g >
<title>0xffffffff92025b05 (2,603,780 microwatts, 0.02%)</title><rect x="987.0" y="181" width="0.2" height="15.0" fill="rgb(254,229,54)" rx="2" ry="2" />
<text  x="989.96" y="191.5" ></text>
</g>
<g >
<title>0xffffffff9202d1d7 (3,486,060 microwatts, 0.03%)</title><rect x="849.5" y="229" width="0.3" height="15.0" fill="rgb(218,64,15)" rx="2" ry="2" />
<text  x="852.45" y="239.5" ></text>
</g>
<g >
<title>0xffffffff91f7028f (4,380,048 microwatts, 0.03%)</title><rect x="993.3" y="101" width="0.4" height="15.0" fill="rgb(254,226,54)" rx="2" ry="2" />
<text  x="996.34" y="111.5" ></text>
</g>
<g >
<title>0xffffffff91f699ba (1,952,245 microwatts, 0.02%)</title><rect x="992.4" y="101" width="0.2" height="15.0" fill="rgb(218,61,14)" rx="2" ry="2" />
<text  x="995.39" y="111.5" ></text>
</g>
<g >
<title>0xffffffff91f699ce (1,100,249 microwatts, 0.01%)</title><rect x="992.6" y="101" width="0.1" height="15.0" fill="rgb(236,143,34)" rx="2" ry="2" />
<text  x="995.61" y="111.5" ></text>
</g>
<g >
<title>0xffffffffffffff80 (1,952,245 microwatts, 0.02%)</title><rect x="992.4" y="85" width="0.2" height="15.0" fill="rgb(231,122,29)" rx="2" ry="2" />
<text  x="995.39" y="95.5" ></text>
</g>
<g >
<title>0xffffffffffffff80 (1,428,742 microwatts, 0.01%)</title><rect x="991.1" y="101" width="0.1" height="15.0" fill="rgb(231,122,29)" rx="2" ry="2" />
<text  x="994.09" y="111.5" ></text>
</g>
<g >
<title>0xffffffff91f63bb0 (4,460,879 microwatts, 0.04%)</title><rect x="991.0" y="133" width="0.4" height="15.0" fill="rgb(208,17,4)" rx="2" ry="2" />
<text  x="994.00" y="143.5" ></text>
</g>
<g >
<title> 0xfffffffffffffe00 (36,630,243 microwatts, 0.29%)</title><rect x="452.9" y="325" width="3.5" height="15.0" fill="rgb(233,129,30)" rx="2" ry="2" />
<text  x="455.94" y="335.5" ></text>
</g>
<g >
<title>0xffffffff93097b77 (3,486,060 microwatts, 0.03%)</title><rect x="849.5" y="293" width="0.3" height="15.0" fill="rgb(232,124,29)" rx="2" ry="2" />
<text  x="852.45" y="303.5" ></text>
</g>
<g >
<title>0xffffffffffffff80 (1,181,988 microwatts, 0.01%)</title><rect x="993.6" y="69" width="0.1" height="15.0" fill="rgb(231,122,29)" rx="2" ry="2" />
<text  x="996.56" y="79.5" ></text>
</g>
<g >
<title>clock_gettime@@GLIBC_2.17 (165,989,665 microwatts, 1.32%)</title><rect x="983.8" y="309" width="15.6" height="15.0" fill="rgb(250,209,50)" rx="2" ry="2" />
<text  x="986.82" y="319.5" ></text>
</g>
<g >
<title>0xffffffffffffff80 (2,383,703 microwatts, 0.02%)</title><rect x="993.3" y="69" width="0.3" height="15.0" fill="rgb(231,122,29)" rx="2" ry="2" />
<text  x="996.34" y="79.5" ></text>
</g>
<g >
<title>matgen (2,030,551,664 microwatts, 16.14%)</title><rect x="999.6" y="341" width="190.4" height="15.0" fill="rgb(205,0,0)" rx="2" ry="2" />
<text  x="1002.57" y="351.5" >matgen</text>
</g>
<g >
<title>0xffffffffffffff80 (1,444,976 microwatts, 0.01%)</title><rect x="997.9" y="213" width="0.1" height="15.0" fill="rgb(231,122,29)" rx="2" ry="2" />
<text  x="1000.90" y="223.5" ></text>
</g>
<g >
<title>0xffffffff930a9288 (1,428,742 microwatts, 0.01%)</title><rect x="991.1" y="117" width="0.1" height="15.0" fill="rgb(207,13,3)" rx="2" ry="2" />
<text  x="994.09" y="127.5" ></text>
</g>
<g >
<title>0xffffffffffffff80 (1,215,663 microwatts, 0.01%)</title><rect x="986.7" y="149" width="0.2" height="15.0" fill="rgb(231,122,29)" rx="2" ry="2" />
<text  x="989.74" y="159.5" ></text>
</g>
<g >
<title>0xffffffff9320012b (144,453,781 microwatts, 1.15%)</title><rect x="985.2" y="261" width="13.6" height="15.0" fill="rgb(243,177,42)" rx="2" ry="2" />
<text  x="988.21" y="271.5" ></text>
</g>
<g >
<title>0xffffffff9309891e (1,172,821 microwatts, 0.01%)</title><rect x="998.0" y="229" width="0.1" height="15.0" fill="rgb(232,124,29)" rx="2" ry="2" />
<text  x="1001.04" y="239.5" ></text>
</g>
<g >
<title>0xffffffffffffff80 (6,473,649 microwatts, 0.05%)</title><rect x="991.4" y="37" width="0.6" height="15.0" fill="rgb(231,122,29)" rx="2" ry="2" />
<text  x="994.41" y="47.5" ></text>
</g>
<g >
<title>0xffffffffffffff80 (1,868,274 microwatts, 0.01%)</title><rect x="988.2" y="133" width="0.1" height="15.0" fill="rgb(231,122,29)" rx="2" ry="2" />
<text  x="991.17" y="143.5" ></text>
</g>
<g >
<title>0xffffffff91fa188f (4,745,946 microwatts, 0.04%)</title><rect x="994.1" y="85" width="0.4" height="15.0" fill="rgb(237,150,36)" rx="2" ry="2" />
<text  x="997.06" y="95.5" ></text>
</g>
<g >
<title>0xffffffff920232e0 (7,132,747 microwatts, 0.06%)</title><rect x="985.6" y="213" width="0.7" height="15.0" fill="rgb(217,58,14)" rx="2" ry="2" />
<text  x="988.59" y="223.5" ></text>
</g>
<g >
<title>0xfffffffffffffe00 (1,413,802,123 microwatts, 11.24%)</title><rect x="851.0" y="325" width="132.6" height="15.0" fill="rgb(239,160,38)" rx="2" ry="2" />
<text  x="854.05" y="335.5" >0xfffffffffffffe00</text>
</g>
<g >
<title>clock (167,895,643 microwatts, 1.33%)</title><rect x="983.6" y="325" width="15.8" height="15.0" fill="rgb(228,108,25)" rx="2" ry="2" />
<text  x="986.64" y="335.5" ></text>
</g>
<g >
<title>0xffffffff930a91ce (15,648,820 microwatts, 0.12%)</title><rect x="988.9" y="101" width="1.5" height="15.0" fill="rgb(245,188,45)" rx="2" ry="2" />
<text  x="991.89" y="111.5" ></text>
</g>
<g >
<title> 0xfffffffffffffe00 (39,229,418 microwatts, 0.31%)</title><rect x="10.1" y="325" width="3.7" height="15.0" fill="rgb(233,129,30)" rx="2" ry="2" />
<text  x="13.14" y="335.5" ></text>
</g>
<g >
<title>0xffffffff920232ed (104,418,951 microwatts, 0.83%)</title><rect x="986.3" y="213" width="9.7" height="15.0" fill="rgb(231,123,29)" rx="2" ry="2" />
<text  x="989.26" y="223.5" ></text>
</g>
<g >
<title>0xffffffff9309124e (134,916,420 microwatts, 1.07%)</title><rect x="985.2" y="245" width="12.7" height="15.0" fill="rgb(253,221,52)" rx="2" ry="2" />
<text  x="988.21" y="255.5" ></text>
</g>
<g >
<title>0xffffffffffffff80 (1,211,111 microwatts, 0.01%)</title><rect x="987.1" y="149" width="0.1" height="15.0" fill="rgb(231,122,29)" rx="2" ry="2" />
<text  x="990.05" y="159.5" ></text>
</g>
<g >
<title>0xffffffff93200080 (9,637,557 microwatts, 0.08%)</title><rect x="984.3" y="261" width="0.9" height="15.0" fill="rgb(234,134,32)" rx="2" ry="2" />
<text  x="987.31" y="271.5" ></text>
</g>
<g >
<title>0xffffffff91f8fca0 (1,257,780 microwatts, 0.01%)</title><rect x="987.2" y="165" width="0.1" height="15.0" fill="rgb(216,52,12)" rx="2" ry="2" />
<text  x="990.20" y="175.5" ></text>
</g>
<g >
<title>0xffffffff932001c4 (6,272,382 microwatts, 0.05%)</title><rect x="998.8" y="261" width="0.5" height="15.0" fill="rgb(224,88,21)" rx="2" ry="2" />
<text  x="1001.76" y="271.5" ></text>
</g>
<g >
<title>0xfffffffffffffe00 (1,905,978 microwatts, 0.02%)</title><rect x="983.6" y="309" width="0.2" height="15.0" fill="rgb(239,160,38)" rx="2" ry="2" />
<text  x="986.64" y="319.5" ></text>
</g>
<g >
<title>0xffffffffffffff80 (5,179,256 microwatts, 0.04%)</title><rect x="990.4" y="85" width="0.4" height="15.0" fill="rgb(231,122,29)" rx="2" ry="2" />
<text  x="993.36" y="95.5" ></text>
</g>
<g >
<title>0xffffffff920141a1 (3,036,086 microwatts, 0.02%)</title><rect x="849.5" y="213" width="0.3" height="15.0" fill="rgb(243,177,42)" rx="2" ry="2" />
<text  x="852.50" y="223.5" ></text>
</g>
<g >
<title>0xffffffffffffff80 (1,623,229 microwatts, 0.01%)</title><rect x="995.7" y="149" width="0.2" height="15.0" fill="rgb(231,122,29)" rx="2" ry="2" />
<text  x="998.75" y="159.5" ></text>
</g>
<g >
<title>0xffffffff93200f0b (1,283,188 microwatts, 0.01%)</title><rect x="1189.9" y="309" width="0.1" height="15.0" fill="rgb(214,42,10)" rx="2" ry="2" />
<text  x="1192.88" y="319.5" ></text>
</g>
<g >
<title>0xffffffff91f6ffc7 (2,452,612 microwatts, 0.02%)</title><rect x="992.7" y="101" width="0.2" height="15.0" fill="rgb(251,215,51)" rx="2" ry="2" />
<text  x="995.72" y="111.5" ></text>
</g>
<g >
<title>0xffffffffffffff80 (6,923,721 microwatts, 0.06%)</title><rect x="997.0" y="165" width="0.7" height="15.0" fill="rgb(231,122,29)" rx="2" ry="2" />
<text  x="1000.04" y="175.5" ></text>
</g>
<g >
<title>0xffffffff9269f57e (6,923,721 microwatts, 0.06%)</title><rect x="997.0" y="181" width="0.7" height="15.0" fill="rgb(239,159,38)" rx="2" ry="2" />
<text  x="1000.04" y="191.5" ></text>
</g>
<g >
<title>0xffffffff91f9d6c0 (8,518,398 microwatts, 0.07%)</title><rect x="991.4" y="101" width="0.8" height="15.0" fill="rgb(250,210,50)" rx="2" ry="2" />
<text  x="994.41" y="111.5" ></text>
</g>
<g >
<title>0xffffffffffffff80 (7,132,747 microwatts, 0.06%)</title><rect x="985.6" y="197" width="0.7" height="15.0" fill="rgb(231,122,29)" rx="2" ry="2" />
<text  x="988.59" y="207.5" ></text>
</g>
<g >
<title>0xfffffffffffffe00 (2,017,973,334 microwatts, 16.04%)</title><rect x="1000.7" y="325" width="189.3" height="15.0" fill="rgb(239,160,38)" rx="2" ry="2" />
<text  x="1003.75" y="335.5" >0xfffffffffffffe00</text>
</g>
<g >
<title>0xffffffff93200f0b (3,921,442 microwatts, 0.03%)</title><rect x="849.5" y="309" width="0.3" height="15.0" fill="rgb(214,42,10)" rx="2" ry="2" />
<text  x="852.45" y="319.5" ></text>
</g>
<g >
<title>0xffffffff91f699b5 (2,383,703 microwatts, 0.02%)</title><rect x="993.3" y="85" width="0.3" height="15.0" fill="rgb(252,219,52)" rx="2" ry="2" />
<text  x="996.34" y="95.5" ></text>
</g>
<g >
<title>0xffffffff91e0bab4 (134,492,781 microwatts, 1.07%)</title><rect x="985.3" y="229" width="12.6" height="15.0" fill="rgb(231,119,28)" rx="2" ry="2" />
<text  x="988.25" y="239.5" ></text>
</g>
<g >
<title>0xffffffff92016078 (3,486,060 microwatts, 0.03%)</title><rect x="849.5" y="261" width="0.3" height="15.0" fill="rgb(213,37,9)" rx="2" ry="2" />
<text  x="852.45" y="271.5" ></text>
</g>
<g >
<title>0xffffffff91f8fe23 (71,836,481 microwatts, 0.57%)</title><rect x="988.6" y="149" width="6.7" height="15.0" fill="rgb(237,150,36)" rx="2" ry="2" />
<text  x="991.57" y="159.5" ></text>
</g>
<g >
<title>0x767e75392ede (164,805,903 microwatts, 1.31%)</title><rect x="983.9" y="293" width="15.4" height="15.0" fill="rgb(247,194,46)" rx="2" ry="2" />
<text  x="986.89" y="303.5" ></text>
</g>
<g >
<title>0xffffffff91e6dc30 (8,113,282 microwatts, 0.06%)</title><rect x="991.4" y="85" width="0.8" height="15.0" fill="rgb(245,188,45)" rx="2" ry="2" />
<text  x="994.41" y="95.5" ></text>
</g>
<g >
<title>0xffffffff920232b2 (2,835,607 microwatts, 0.02%)</title><rect x="985.3" y="213" width="0.3" height="15.0" fill="rgb(224,88,21)" rx="2" ry="2" />
<text  x="988.32" y="223.5" ></text>
</g>
<g >
<title>0xffffffff91f3e653 (1,211,111 microwatts, 0.01%)</title><rect x="987.1" y="165" width="0.1" height="15.0" fill="rgb(210,26,6)" rx="2" ry="2" />
<text  x="990.05" y="175.5" ></text>
</g>
<g >
<title>0xffffffff92025b93 (103,495,814 microwatts, 0.82%)</title><rect x="986.3" y="197" width="9.7" height="15.0" fill="rgb(209,21,5)" rx="2" ry="2" />
<text  x="989.34" y="207.5" ></text>
</g>
<g >
<title>0xffffffffffffff80 (2,835,607 microwatts, 0.02%)</title><rect x="985.3" y="197" width="0.3" height="15.0" fill="rgb(231,122,29)" rx="2" ry="2" />
<text  x="988.32" y="207.5" ></text>
</g>
</g>
</svg>
