<?xml version="1.0" encoding="utf-8" standalone="no"?>
<!DOCTYPE svg PUBLIC "-//W3C//DTD SVG 1.1//EN"
  "http://www.w3.org/Graphics/SVG/1.1/DTD/svg11.dtd">
<svg xmlns:xlink="http://www.w3.org/1999/xlink" width="864pt" height="432pt" viewBox="0 0 864 432" xmlns="http://www.w3.org/2000/svg" version="1.1">
 <metadata>
  <rdf:RDF xmlns:dc="http://purl.org/dc/elements/1.1/" xmlns:cc="http://creativecommons.org/ns#" xmlns:rdf="http://www.w3.org/1999/02/22-rdf-syntax-ns#">
   <cc:Work>
    <dc:type rdf:resource="http://purl.org/dc/dcmitype/StillImage"/>
    <dc:date>2025-04-14T18:13:37.235625</dc:date>
    <dc:format>image/svg+xml</dc:format>
    <dc:creator>
     <cc:Agent>
      <dc:title>Matplotlib v3.9.2, https://matplotlib.org/</dc:title>
     </cc:Agent>
    </dc:creator>
   </cc:Work>
  </rdf:RDF>
 </metadata>
 <defs>
  <style type="text/css">*{stroke-linejoin: round; stroke-linecap: butt}</style>
 </defs>
 <g id="figure_1">
  <g id="patch_1">
   <path d="M 0 432 
L 864 432 
L 864 0 
L 0 0 
z
" style="fill: #ffffff"/>
  </g>
  <g id="axes_1">
   <g id="patch_2">
    <path d="M 108 384.48 
L 777.6 384.48 
L 777.6 51.84 
L 108 51.84 
z
" style="fill: #ffffff"/>
   </g>
   <g id="matplotlib.axis_1">
    <g id="xtick_1">
     <g id="line2d_1">
      <defs>
       <path id="m63de17687a" d="M 0 0 
L 0 3.5 
" style="stroke: #000000; stroke-width: 0.8"/>
      </defs>
      <g>
       <use xlink:href="#m63de17687a" x="138.436364" y="384.48" style="stroke: #000000; stroke-width: 0.8"/>
      </g>
     </g>
     <g id="text_1">
      <!-- 0 -->
      <g transform="translate(135.255114 399.078438) scale(0.1 -0.1)">
       <defs>
        <path id="DejaVuSans-30" d="M 2034 4250 
Q 1547 4250 1301 3770 
Q 1056 3291 1056 2328 
Q 1056 1369 1301 889 
Q 1547 409 2034 409 
Q 2525 409 2770 889 
Q 3016 1369 3016 2328 
Q 3016 3291 2770 3770 
Q 2525 4250 2034 4250 
z
M 2034 4750 
Q 2819 4750 3233 4129 
Q 3647 3509 3647 2328 
Q 3647 1150 3233 529 
Q 2819 -91 2034 -91 
Q 1250 -91 836 529 
Q 422 1150 422 2328 
Q 422 3509 836 4129 
Q 1250 4750 2034 4750 
z
" transform="scale(0.015625)"/>
       </defs>
       <use xlink:href="#DejaVuSans-30"/>
      </g>
     </g>
    </g>
    <g id="xtick_2">
     <g id="line2d_2">
      <g>
       <use xlink:href="#m63de17687a" x="259.953366" y="384.48" style="stroke: #000000; stroke-width: 0.8"/>
      </g>
     </g>
     <g id="text_2">
      <!-- 5 -->
      <g transform="translate(256.772116 399.078438) scale(0.1 -0.1)">
       <defs>
        <path id="DejaVuSans-35" d="M 691 4666 
L 3169 4666 
L 3169 4134 
L 1269 4134 
L 1269 2991 
Q 1406 3038 1543 3061 
Q 1681 3084 1819 3084 
Q 2600 3084 3056 2656 
Q 3513 2228 3513 1497 
Q 3513 744 3044 326 
Q 2575 -91 1722 -91 
Q 1428 -91 1123 -41 
Q 819 9 494 109 
L 494 744 
Q 775 591 1075 516 
Q 1375 441 1709 441 
Q 2250 441 2565 725 
Q 2881 1009 2881 1497 
Q 2881 1984 2565 2268 
Q 2250 2553 1709 2553 
Q 1456 2553 1204 2497 
Q 953 2441 691 2322 
L 691 4666 
z
" transform="scale(0.015625)"/>
       </defs>
       <use xlink:href="#DejaVuSans-35"/>
      </g>
     </g>
    </g>
    <g id="xtick_3">
     <g id="line2d_3">
      <g>
       <use xlink:href="#m63de17687a" x="381.470369" y="384.48" style="stroke: #000000; stroke-width: 0.8"/>
      </g>
     </g>
     <g id="text_3">
      <!-- 10 -->
      <g transform="translate(375.107869 399.078438) scale(0.1 -0.1)">
       <defs>
        <path id="DejaVuSans-31" d="M 794 531 
L 1825 531 
L 1825 4091 
L 703 3866 
L 703 4441 
L 1819 4666 
L 2450 4666 
L 2450 531 
L 3481 531 
L 3481 0 
L 794 0 
L 794 531 
z
" transform="scale(0.015625)"/>
       </defs>
       <use xlink:href="#DejaVuSans-31"/>
       <use xlink:href="#DejaVuSans-30" x="63.623047"/>
      </g>
     </g>
    </g>
    <g id="xtick_4">
     <g id="line2d_4">
      <g>
       <use xlink:href="#m63de17687a" x="502.987371" y="384.48" style="stroke: #000000; stroke-width: 0.8"/>
      </g>
     </g>
     <g id="text_4">
      <!-- 15 -->
      <g transform="translate(496.624871 399.078438) scale(0.1 -0.1)">
       <use xlink:href="#DejaVuSans-31"/>
       <use xlink:href="#DejaVuSans-35" x="63.623047"/>
      </g>
     </g>
    </g>
    <g id="xtick_5">
     <g id="line2d_5">
      <g>
       <use xlink:href="#m63de17687a" x="624.504374" y="384.48" style="stroke: #000000; stroke-width: 0.8"/>
      </g>
     </g>
     <g id="text_5">
      <!-- 20 -->
      <g transform="translate(618.141874 399.078438) scale(0.1 -0.1)">
       <defs>
        <path id="DejaVuSans-32" d="M 1228 531 
L 3431 531 
L 3431 0 
L 469 0 
L 469 531 
Q 828 903 1448 1529 
Q 2069 2156 2228 2338 
Q 2531 2678 2651 2914 
Q 2772 3150 2772 3378 
Q 2772 3750 2511 3984 
Q 2250 4219 1831 4219 
Q 1534 4219 1204 4116 
Q 875 4013 500 3803 
L 500 4441 
Q 881 4594 1212 4672 
Q 1544 4750 1819 4750 
Q 2544 4750 2975 4387 
Q 3406 4025 3406 3419 
Q 3406 3131 3298 2873 
Q 3191 2616 2906 2266 
Q 2828 2175 2409 1742 
Q 1991 1309 1228 531 
z
" transform="scale(0.015625)"/>
       </defs>
       <use xlink:href="#DejaVuSans-32"/>
       <use xlink:href="#DejaVuSans-30" x="63.623047"/>
      </g>
     </g>
    </g>
    <g id="xtick_6">
     <g id="line2d_6">
      <g>
       <use xlink:href="#m63de17687a" x="746.021377" y="384.48" style="stroke: #000000; stroke-width: 0.8"/>
      </g>
     </g>
     <g id="text_6">
      <!-- 25 -->
      <g transform="translate(739.658877 399.078438) scale(0.1 -0.1)">
       <use xlink:href="#DejaVuSans-32"/>
       <use xlink:href="#DejaVuSans-35" x="63.623047"/>
      </g>
     </g>
    </g>
    <g id="text_7">
     <!-- Timestamp (seconds) -->
     <g transform="translate(388.964844 412.756563) scale(0.1 -0.1)">
      <defs>
       <path id="DejaVuSans-54" d="M -19 4666 
L 3928 4666 
L 3928 4134 
L 2272 4134 
L 2272 0 
L 1638 0 
L 1638 4134 
L -19 4134 
L -19 4666 
z
" transform="scale(0.015625)"/>
       <path id="DejaVuSans-69" d="M 603 3500 
L 1178 3500 
L 1178 0 
L 603 0 
L 603 3500 
z
M 603 4863 
L 1178 4863 
L 1178 4134 
L 603 4134 
L 603 4863 
z
" transform="scale(0.015625)"/>
       <path id="DejaVuSans-6d" d="M 3328 2828 
Q 3544 3216 3844 3400 
Q 4144 3584 4550 3584 
Q 5097 3584 5394 3201 
Q 5691 2819 5691 2113 
L 5691 0 
L 5113 0 
L 5113 2094 
Q 5113 2597 4934 2840 
Q 4756 3084 4391 3084 
Q 3944 3084 3684 2787 
Q 3425 2491 3425 1978 
L 3425 0 
L 2847 0 
L 2847 2094 
Q 2847 2600 2669 2842 
Q 2491 3084 2119 3084 
Q 1678 3084 1418 2786 
Q 1159 2488 1159 1978 
L 1159 0 
L 581 0 
L 581 3500 
L 1159 3500 
L 1159 2956 
Q 1356 3278 1631 3431 
Q 1906 3584 2284 3584 
Q 2666 3584 2933 3390 
Q 3200 3197 3328 2828 
z
" transform="scale(0.015625)"/>
       <path id="DejaVuSans-65" d="M 3597 1894 
L 3597 1613 
L 953 1613 
Q 991 1019 1311 708 
Q 1631 397 2203 397 
Q 2534 397 2845 478 
Q 3156 559 3463 722 
L 3463 178 
Q 3153 47 2828 -22 
Q 2503 -91 2169 -91 
Q 1331 -91 842 396 
Q 353 884 353 1716 
Q 353 2575 817 3079 
Q 1281 3584 2069 3584 
Q 2775 3584 3186 3129 
Q 3597 2675 3597 1894 
z
M 3022 2063 
Q 3016 2534 2758 2815 
Q 2500 3097 2075 3097 
Q 1594 3097 1305 2825 
Q 1016 2553 972 2059 
L 3022 2063 
z
" transform="scale(0.015625)"/>
       <path id="DejaVuSans-73" d="M 2834 3397 
L 2834 2853 
Q 2591 2978 2328 3040 
Q 2066 3103 1784 3103 
Q 1356 3103 1142 2972 
Q 928 2841 928 2578 
Q 928 2378 1081 2264 
Q 1234 2150 1697 2047 
L 1894 2003 
Q 2506 1872 2764 1633 
Q 3022 1394 3022 966 
Q 3022 478 2636 193 
Q 2250 -91 1575 -91 
Q 1294 -91 989 -36 
Q 684 19 347 128 
L 347 722 
Q 666 556 975 473 
Q 1284 391 1588 391 
Q 1994 391 2212 530 
Q 2431 669 2431 922 
Q 2431 1156 2273 1281 
Q 2116 1406 1581 1522 
L 1381 1569 
Q 847 1681 609 1914 
Q 372 2147 372 2553 
Q 372 3047 722 3315 
Q 1072 3584 1716 3584 
Q 2034 3584 2315 3537 
Q 2597 3491 2834 3397 
z
" transform="scale(0.015625)"/>
       <path id="DejaVuSans-74" d="M 1172 4494 
L 1172 3500 
L 2356 3500 
L 2356 3053 
L 1172 3053 
L 1172 1153 
Q 1172 725 1289 603 
Q 1406 481 1766 481 
L 2356 481 
L 2356 0 
L 1766 0 
Q 1100 0 847 248 
Q 594 497 594 1153 
L 594 3053 
L 172 3053 
L 172 3500 
L 594 3500 
L 594 4494 
L 1172 4494 
z
" transform="scale(0.015625)"/>
       <path id="DejaVuSans-61" d="M 2194 1759 
Q 1497 1759 1228 1600 
Q 959 1441 959 1056 
Q 959 750 1161 570 
Q 1363 391 1709 391 
Q 2188 391 2477 730 
Q 2766 1069 2766 1631 
L 2766 1759 
L 2194 1759 
z
M 3341 1997 
L 3341 0 
L 2766 0 
L 2766 531 
Q 2569 213 2275 61 
Q 1981 -91 1556 -91 
Q 1019 -91 701 211 
Q 384 513 384 1019 
Q 384 1609 779 1909 
Q 1175 2209 1959 2209 
L 2766 2209 
L 2766 2266 
Q 2766 2663 2505 2880 
Q 2244 3097 1772 3097 
Q 1472 3097 1187 3025 
Q 903 2953 641 2809 
L 641 3341 
Q 956 3463 1253 3523 
Q 1550 3584 1831 3584 
Q 2591 3584 2966 3190 
Q 3341 2797 3341 1997 
z
" transform="scale(0.015625)"/>
       <path id="DejaVuSans-70" d="M 1159 525 
L 1159 -1331 
L 581 -1331 
L 581 3500 
L 1159 3500 
L 1159 2969 
Q 1341 3281 1617 3432 
Q 1894 3584 2278 3584 
Q 2916 3584 3314 3078 
Q 3713 2572 3713 1747 
Q 3713 922 3314 415 
Q 2916 -91 2278 -91 
Q 1894 -91 1617 61 
Q 1341 213 1159 525 
z
M 3116 1747 
Q 3116 2381 2855 2742 
Q 2594 3103 2138 3103 
Q 1681 3103 1420 2742 
Q 1159 2381 1159 1747 
Q 1159 1113 1420 752 
Q 1681 391 2138 391 
Q 2594 391 2855 752 
Q 3116 1113 3116 1747 
z
" transform="scale(0.015625)"/>
       <path id="DejaVuSans-20" transform="scale(0.015625)"/>
       <path id="DejaVuSans-28" d="M 1984 4856 
Q 1566 4138 1362 3434 
Q 1159 2731 1159 2009 
Q 1159 1288 1364 580 
Q 1569 -128 1984 -844 
L 1484 -844 
Q 1016 -109 783 600 
Q 550 1309 550 2009 
Q 550 2706 781 3412 
Q 1013 4119 1484 4856 
L 1984 4856 
z
" transform="scale(0.015625)"/>
       <path id="DejaVuSans-63" d="M 3122 3366 
L 3122 2828 
Q 2878 2963 2633 3030 
Q 2388 3097 2138 3097 
Q 1578 3097 1268 2742 
Q 959 2388 959 1747 
Q 959 1106 1268 751 
Q 1578 397 2138 397 
Q 2388 397 2633 464 
Q 2878 531 3122 666 
L 3122 134 
Q 2881 22 2623 -34 
Q 2366 -91 2075 -91 
Q 1284 -91 818 406 
Q 353 903 353 1747 
Q 353 2603 823 3093 
Q 1294 3584 2113 3584 
Q 2378 3584 2631 3529 
Q 2884 3475 3122 3366 
z
" transform="scale(0.015625)"/>
       <path id="DejaVuSans-6f" d="M 1959 3097 
Q 1497 3097 1228 2736 
Q 959 2375 959 1747 
Q 959 1119 1226 758 
Q 1494 397 1959 397 
Q 2419 397 2687 759 
Q 2956 1122 2956 1747 
Q 2956 2369 2687 2733 
Q 2419 3097 1959 3097 
z
M 1959 3584 
Q 2709 3584 3137 3096 
Q 3566 2609 3566 1747 
Q 3566 888 3137 398 
Q 2709 -91 1959 -91 
Q 1206 -91 779 398 
Q 353 888 353 1747 
Q 353 2609 779 3096 
Q 1206 3584 1959 3584 
z
" transform="scale(0.015625)"/>
       <path id="DejaVuSans-6e" d="M 3513 2113 
L 3513 0 
L 2938 0 
L 2938 2094 
Q 2938 2591 2744 2837 
Q 2550 3084 2163 3084 
Q 1697 3084 1428 2787 
Q 1159 2491 1159 1978 
L 1159 0 
L 581 0 
L 581 3500 
L 1159 3500 
L 1159 2956 
Q 1366 3272 1645 3428 
Q 1925 3584 2291 3584 
Q 2894 3584 3203 3211 
Q 3513 2838 3513 2113 
z
" transform="scale(0.015625)"/>
       <path id="DejaVuSans-64" d="M 2906 2969 
L 2906 4863 
L 3481 4863 
L 3481 0 
L 2906 0 
L 2906 525 
Q 2725 213 2448 61 
Q 2172 -91 1784 -91 
Q 1150 -91 751 415 
Q 353 922 353 1747 
Q 353 2572 751 3078 
Q 1150 3584 1784 3584 
Q 2172 3584 2448 3432 
Q 2725 3281 2906 2969 
z
M 947 1747 
Q 947 1113 1208 752 
Q 1469 391 1925 391 
Q 2381 391 2643 752 
Q 2906 1113 2906 1747 
Q 2906 2381 2643 2742 
Q 2381 3103 1925 3103 
Q 1469 3103 1208 2742 
Q 947 2381 947 1747 
z
" transform="scale(0.015625)"/>
       <path id="DejaVuSans-29" d="M 513 4856 
L 1013 4856 
Q 1481 4119 1714 3412 
Q 1947 2706 1947 2009 
Q 1947 1309 1714 600 
Q 1481 -109 1013 -844 
L 513 -844 
Q 928 -128 1133 580 
Q 1338 1288 1338 2009 
Q 1338 2731 1133 3434 
Q 928 4138 513 4856 
z
" transform="scale(0.015625)"/>
      </defs>
      <use xlink:href="#DejaVuSans-54"/>
      <use xlink:href="#DejaVuSans-69" x="57.958984"/>
      <use xlink:href="#DejaVuSans-6d" x="85.742188"/>
      <use xlink:href="#DejaVuSans-65" x="183.154297"/>
      <use xlink:href="#DejaVuSans-73" x="244.677734"/>
      <use xlink:href="#DejaVuSans-74" x="296.777344"/>
      <use xlink:href="#DejaVuSans-61" x="335.986328"/>
      <use xlink:href="#DejaVuSans-6d" x="397.265625"/>
      <use xlink:href="#DejaVuSans-70" x="494.677734"/>
      <use xlink:href="#DejaVuSans-20" x="558.154297"/>
      <use xlink:href="#DejaVuSans-28" x="589.941406"/>
      <use xlink:href="#DejaVuSans-73" x="628.955078"/>
      <use xlink:href="#DejaVuSans-65" x="681.054688"/>
      <use xlink:href="#DejaVuSans-63" x="742.578125"/>
      <use xlink:href="#DejaVuSans-6f" x="797.558594"/>
      <use xlink:href="#DejaVuSans-6e" x="858.740234"/>
      <use xlink:href="#DejaVuSans-64" x="922.119141"/>
      <use xlink:href="#DejaVuSans-73" x="985.595703"/>
      <use xlink:href="#DejaVuSans-29" x="1037.695312"/>
     </g>
    </g>
   </g>
   <g id="matplotlib.axis_2">
    <g id="ytick_1">
     <g id="line2d_7">
      <defs>
       <path id="m90b08e59e1" d="M 0 0 
L -3.5 0 
" style="stroke: #000000; stroke-width: 0.8"/>
      </defs>
      <g>
       <use xlink:href="#m90b08e59e1" x="108" y="378.860816" style="stroke: #000000; stroke-width: 0.8"/>
      </g>
     </g>
     <g id="text_8">
      <!-- 10 -->
      <g transform="translate(88.275 382.660035) scale(0.1 -0.1)">
       <use xlink:href="#DejaVuSans-31"/>
       <use xlink:href="#DejaVuSans-30" x="63.623047"/>
      </g>
     </g>
    </g>
    <g id="ytick_2">
     <g id="line2d_8">
      <g>
       <use xlink:href="#m90b08e59e1" x="108" y="323.611962" style="stroke: #000000; stroke-width: 0.8"/>
      </g>
     </g>
     <g id="text_9">
      <!-- 15 -->
      <g transform="translate(88.275 327.411181) scale(0.1 -0.1)">
       <use xlink:href="#DejaVuSans-31"/>
       <use xlink:href="#DejaVuSans-35" x="63.623047"/>
      </g>
     </g>
    </g>
    <g id="ytick_3">
     <g id="line2d_9">
      <g>
       <use xlink:href="#m90b08e59e1" x="108" y="268.363109" style="stroke: #000000; stroke-width: 0.8"/>
      </g>
     </g>
     <g id="text_10">
      <!-- 20 -->
      <g transform="translate(88.275 272.162328) scale(0.1 -0.1)">
       <use xlink:href="#DejaVuSans-32"/>
       <use xlink:href="#DejaVuSans-30" x="63.623047"/>
      </g>
     </g>
    </g>
    <g id="ytick_4">
     <g id="line2d_10">
      <g>
       <use xlink:href="#m90b08e59e1" x="108" y="213.114255" style="stroke: #000000; stroke-width: 0.8"/>
      </g>
     </g>
     <g id="text_11">
      <!-- 25 -->
      <g transform="translate(88.275 216.913474) scale(0.1 -0.1)">
       <use xlink:href="#DejaVuSans-32"/>
       <use xlink:href="#DejaVuSans-35" x="63.623047"/>
      </g>
     </g>
    </g>
    <g id="ytick_5">
     <g id="line2d_11">
      <g>
       <use xlink:href="#m90b08e59e1" x="108" y="157.865402" style="stroke: #000000; stroke-width: 0.8"/>
      </g>
     </g>
     <g id="text_12">
      <!-- 30 -->
      <g transform="translate(88.275 161.664621) scale(0.1 -0.1)">
       <defs>
        <path id="DejaVuSans-33" d="M 2597 2516 
Q 3050 2419 3304 2112 
Q 3559 1806 3559 1356 
Q 3559 666 3084 287 
Q 2609 -91 1734 -91 
Q 1441 -91 1130 -33 
Q 819 25 488 141 
L 488 750 
Q 750 597 1062 519 
Q 1375 441 1716 441 
Q 2309 441 2620 675 
Q 2931 909 2931 1356 
Q 2931 1769 2642 2001 
Q 2353 2234 1838 2234 
L 1294 2234 
L 1294 2753 
L 1863 2753 
Q 2328 2753 2575 2939 
Q 2822 3125 2822 3475 
Q 2822 3834 2567 4026 
Q 2313 4219 1838 4219 
Q 1578 4219 1281 4162 
Q 984 4106 628 3988 
L 628 4550 
Q 988 4650 1302 4700 
Q 1616 4750 1894 4750 
Q 2613 4750 3031 4423 
Q 3450 4097 3450 3541 
Q 3450 3153 3228 2886 
Q 3006 2619 2597 2516 
z
" transform="scale(0.015625)"/>
       </defs>
       <use xlink:href="#DejaVuSans-33"/>
       <use xlink:href="#DejaVuSans-30" x="63.623047"/>
      </g>
     </g>
    </g>
    <g id="ytick_6">
     <g id="line2d_12">
      <g>
       <use xlink:href="#m90b08e59e1" x="108" y="102.616548" style="stroke: #000000; stroke-width: 0.8"/>
      </g>
     </g>
     <g id="text_13">
      <!-- 35 -->
      <g transform="translate(88.275 106.415767) scale(0.1 -0.1)">
       <use xlink:href="#DejaVuSans-33"/>
       <use xlink:href="#DejaVuSans-35" x="63.623047"/>
      </g>
     </g>
    </g>
    <g id="text_14">
     <!-- Effective Power Consumption (watts) -->
     <g transform="translate(82.195312 310.626406) rotate(-90) scale(0.1 -0.1)">
      <defs>
       <path id="DejaVuSans-45" d="M 628 4666 
L 3578 4666 
L 3578 4134 
L 1259 4134 
L 1259 2753 
L 3481 2753 
L 3481 2222 
L 1259 2222 
L 1259 531 
L 3634 531 
L 3634 0 
L 628 0 
L 628 4666 
z
" transform="scale(0.015625)"/>
       <path id="DejaVuSans-66" d="M 2375 4863 
L 2375 4384 
L 1825 4384 
Q 1516 4384 1395 4259 
Q 1275 4134 1275 3809 
L 1275 3500 
L 2222 3500 
L 2222 3053 
L 1275 3053 
L 1275 0 
L 697 0 
L 697 3053 
L 147 3053 
L 147 3500 
L 697 3500 
L 697 3744 
Q 697 4328 969 4595 
Q 1241 4863 1831 4863 
L 2375 4863 
z
" transform="scale(0.015625)"/>
       <path id="DejaVuSans-76" d="M 191 3500 
L 800 3500 
L 1894 563 
L 2988 3500 
L 3597 3500 
L 2284 0 
L 1503 0 
L 191 3500 
z
" transform="scale(0.015625)"/>
       <path id="DejaVuSans-50" d="M 1259 4147 
L 1259 2394 
L 2053 2394 
Q 2494 2394 2734 2622 
Q 2975 2850 2975 3272 
Q 2975 3691 2734 3919 
Q 2494 4147 2053 4147 
L 1259 4147 
z
M 628 4666 
L 2053 4666 
Q 2838 4666 3239 4311 
Q 3641 3956 3641 3272 
Q 3641 2581 3239 2228 
Q 2838 1875 2053 1875 
L 1259 1875 
L 1259 0 
L 628 0 
L 628 4666 
z
" transform="scale(0.015625)"/>
       <path id="DejaVuSans-77" d="M 269 3500 
L 844 3500 
L 1563 769 
L 2278 3500 
L 2956 3500 
L 3675 769 
L 4391 3500 
L 4966 3500 
L 4050 0 
L 3372 0 
L 2619 2869 
L 1863 0 
L 1184 0 
L 269 3500 
z
" transform="scale(0.015625)"/>
       <path id="DejaVuSans-72" d="M 2631 2963 
Q 2534 3019 2420 3045 
Q 2306 3072 2169 3072 
Q 1681 3072 1420 2755 
Q 1159 2438 1159 1844 
L 1159 0 
L 581 0 
L 581 3500 
L 1159 3500 
L 1159 2956 
Q 1341 3275 1631 3429 
Q 1922 3584 2338 3584 
Q 2397 3584 2469 3576 
Q 2541 3569 2628 3553 
L 2631 2963 
z
" transform="scale(0.015625)"/>
       <path id="DejaVuSans-43" d="M 4122 4306 
L 4122 3641 
Q 3803 3938 3442 4084 
Q 3081 4231 2675 4231 
Q 1875 4231 1450 3742 
Q 1025 3253 1025 2328 
Q 1025 1406 1450 917 
Q 1875 428 2675 428 
Q 3081 428 3442 575 
Q 3803 722 4122 1019 
L 4122 359 
Q 3791 134 3420 21 
Q 3050 -91 2638 -91 
Q 1578 -91 968 557 
Q 359 1206 359 2328 
Q 359 3453 968 4101 
Q 1578 4750 2638 4750 
Q 3056 4750 3426 4639 
Q 3797 4528 4122 4306 
z
" transform="scale(0.015625)"/>
       <path id="DejaVuSans-75" d="M 544 1381 
L 544 3500 
L 1119 3500 
L 1119 1403 
Q 1119 906 1312 657 
Q 1506 409 1894 409 
Q 2359 409 2629 706 
Q 2900 1003 2900 1516 
L 2900 3500 
L 3475 3500 
L 3475 0 
L 2900 0 
L 2900 538 
Q 2691 219 2414 64 
Q 2138 -91 1772 -91 
Q 1169 -91 856 284 
Q 544 659 544 1381 
z
M 1991 3584 
L 1991 3584 
z
" transform="scale(0.015625)"/>
      </defs>
      <use xlink:href="#DejaVuSans-45"/>
      <use xlink:href="#DejaVuSans-66" x="63.183594"/>
      <use xlink:href="#DejaVuSans-66" x="98.388672"/>
      <use xlink:href="#DejaVuSans-65" x="133.59375"/>
      <use xlink:href="#DejaVuSans-63" x="195.117188"/>
      <use xlink:href="#DejaVuSans-74" x="250.097656"/>
      <use xlink:href="#DejaVuSans-69" x="289.306641"/>
      <use xlink:href="#DejaVuSans-76" x="317.089844"/>
      <use xlink:href="#DejaVuSans-65" x="376.269531"/>
      <use xlink:href="#DejaVuSans-20" x="437.792969"/>
      <use xlink:href="#DejaVuSans-50" x="469.580078"/>
      <use xlink:href="#DejaVuSans-6f" x="526.257812"/>
      <use xlink:href="#DejaVuSans-77" x="587.439453"/>
      <use xlink:href="#DejaVuSans-65" x="669.226562"/>
      <use xlink:href="#DejaVuSans-72" x="730.75"/>
      <use xlink:href="#DejaVuSans-20" x="771.863281"/>
      <use xlink:href="#DejaVuSans-43" x="803.650391"/>
      <use xlink:href="#DejaVuSans-6f" x="873.474609"/>
      <use xlink:href="#DejaVuSans-6e" x="934.65625"/>
      <use xlink:href="#DejaVuSans-73" x="998.035156"/>
      <use xlink:href="#DejaVuSans-75" x="1050.134766"/>
      <use xlink:href="#DejaVuSans-6d" x="1113.513672"/>
      <use xlink:href="#DejaVuSans-70" x="1210.925781"/>
      <use xlink:href="#DejaVuSans-74" x="1274.402344"/>
      <use xlink:href="#DejaVuSans-69" x="1313.611328"/>
      <use xlink:href="#DejaVuSans-6f" x="1341.394531"/>
      <use xlink:href="#DejaVuSans-6e" x="1402.576172"/>
      <use xlink:href="#DejaVuSans-20" x="1465.955078"/>
      <use xlink:href="#DejaVuSans-28" x="1497.742188"/>
      <use xlink:href="#DejaVuSans-77" x="1536.755859"/>
      <use xlink:href="#DejaVuSans-61" x="1618.542969"/>
      <use xlink:href="#DejaVuSans-74" x="1679.822266"/>
      <use xlink:href="#DejaVuSans-74" x="1719.03125"/>
      <use xlink:href="#DejaVuSans-73" x="1758.240234"/>
      <use xlink:href="#DejaVuSans-29" x="1810.339844"/>
     </g>
    </g>
   </g>
   <g id="line2d_13">
    <path d="M 138.436364 192.281575 
L 140.963917 281.249827 
L 143.442864 224.715956 
L 145.921811 204.144693 
L 148.400758 251.695355 
L 150.879705 324.479347 
L 153.358652 275.566272 
L 155.861902 194.812295 
L 158.340849 179.448017 
L 160.819796 187.031919 
L 163.298742 161.582456 
L 165.777689 242.258118 
L 168.280939 207.263526 
L 170.759886 231.953457 
L 173.238833 184.62929 
L 175.71778 226.606973 
L 178.22103 230.515689 
L 180.699977 235.089034 
L 183.178924 191.613777 
L 185.682174 183.753353 
L 188.161121 268.043801 
L 190.640068 208.63996 
L 193.119015 226.667588 
L 195.597962 232.468183 
L 198.076909 217.315106 
L 200.555855 203.198078 
L 203.059106 158.721406 
L 205.538052 235.349238 
L 208.016999 154.491526 
L 210.495946 159.00118 
L 212.974893 155.951346 
L 215.45384 182.409258 
L 217.932787 169.533504 
L 220.411734 202.497913 
L 222.914984 297.438082 
L 225.393931 258.783844 
L 227.872878 268.205115 
L 230.351824 180.418128 
L 232.830771 132.556924 
L 235.309718 160.694821 
L 237.788665 136.012737 
L 240.267612 181.206897 
L 242.746559 161.222824 
L 245.225506 207.104084 
L 247.704452 211.548312 
L 250.183399 151.233576 
L 252.662346 84.003 
L 255.141293 130.501786 
L 257.595936 169.326123 
L 260.074883 179.95186 
L 262.55383 154.113482 
L 265.032777 217.413295 
L 267.511724 205.847835 
L 269.990671 225.881322 
L 272.493921 202.741957 
L 274.972868 235.763348 
L 277.476118 244.060654 
L 279.955065 191.11414 
L 282.458315 239.695718 
L 284.937262 335.290209 
L 287.416209 205.896048 
L 289.895156 239.893094 
L 292.374103 194.756699 
L 294.853049 303.139213 
L 297.3563 307.033771 
L 299.835246 203.891553 
L 302.314193 194.359954 
L 304.79314 151.885939 
L 307.272087 250.292181 
L 309.751034 154.782596 
L 312.229981 219.544819 
L 314.708928 184.92822 
L 317.187874 206.0869 
L 319.666821 207.36729 
L 322.145768 221.495531 
L 324.624715 232.564407 
L 327.103662 219.330591 
L 329.582609 216.23865 
L 332.061556 243.507073 
L 334.540502 172.611278 
L 337.019449 230.430554 
L 339.5227 231.104949 
L 342.001646 210.372288 
L 344.480593 240.342559 
L 346.95954 241.328379 
L 349.438487 189.797848 
L 351.917434 230.21452 
L 354.396381 207.34241 
L 356.899631 220.303148 
L 359.378578 215.331248 
L 361.881828 271.255254 
L 364.360775 221.696517 
L 366.839722 244.311492 
L 369.318669 312.101288 
L 371.797615 273.229207 
L 374.300866 241.587519 
L 379.283063 197.23467 
L 381.76201 225.258711 
L 384.240956 214.08826 
L 386.719903 272.431255 
L 389.19885 256.31726 
L 391.7021 251.335601 
L 394.181047 210.650046 
L 396.684298 205.839108 
L 399.163244 236.478405 
L 401.642191 213.013749 
L 404.121138 219.30018 
L 406.600085 181.509674 
L 409.079032 292.282037 
L 411.557979 317.99882 
L 414.061229 214.662511 
L 416.540176 205.859147 
L 419.019123 167.321834 
L 421.498069 190.340674 
L 423.977016 215.634577 
L 426.480267 66.96 
L 428.959213 245.33349 
L 431.43816 307.675173 
L 433.917107 224.325183 
L 438.899304 247.685731 
L 441.378251 306.379029 
L 443.857198 322.10497 
L 446.336145 271.352225 
L 448.839395 331.632261 
L 451.318342 303.703822 
L 453.797289 302.429724 
L 456.276236 278.776717 
L 458.779486 328.544111 
L 461.258433 329.405146 
L 463.73738 316.68737 
L 466.216326 275.207364 
L 468.719577 291.104628 
L 471.198524 264.239491 
L 473.67747 351.537231 
L 476.156417 316.138314 
L 478.635364 301.612266 
L 481.114311 290.800466 
L 483.617561 279.023233 
L 486.120811 354.477899 
L 488.624062 317.218952 
L 491.103009 307.46612 
L 493.581955 297.173533 
L 496.060902 298.502159 
L 498.539849 312.509495 
L 501.018796 312.928138 
L 503.497743 315.818608 
L 505.97669 369.36 
L 508.455636 290.081958 
L 510.934583 324.304582 
L 513.41353 345.826499 
L 515.892477 321.970089 
L 518.371424 353.514096 
L 520.850371 365.342043 
L 523.353621 285.876167 
L 525.832568 310.595728 
L 528.311515 318.797247 
L 530.790462 294.542747 
L 533.269408 310.505633 
L 535.748355 310.320746 
L 538.227302 344.023077 
L 540.706249 319.659267 
L 543.185196 311.698985 
L 545.664143 319.970323 
L 548.167393 346.434734 
L 550.622036 289.73957 
L 553.100983 308.57932 
L 555.57993 316.343985 
L 558.058877 304.958122 
L 560.562127 303.275447 
L 563.041074 290.972564 
L 565.520021 357.276404 
L 567.998968 293.866814 
L 570.477915 301.390149 
L 572.981165 327.257105 
L 575.460112 287.734632 
L 577.939059 321.100271 
L 580.418005 322.924804 
L 582.896952 338.142204 
L 585.400203 307.441885 
L 587.879149 333.524069 
L 590.358096 354.354767 
L 592.837043 284.159531 
L 595.340293 307.881097 
L 597.81924 311.205325 
L 600.298187 301.031571 
L 602.801437 303.715467 
L 605.280384 351.988395 
L 607.783634 264.342471 
L 610.262581 343.290455 
L 612.741528 330.326994 
L 615.244778 326.218621 
L 617.772332 280.00342 
L 620.275582 296.254655 
L 622.803136 324.06371 
L 625.306386 354.978066 
L 627.785333 312.713726 
L 630.288583 307.241634 
L 632.76753 318.393655 
L 635.27078 299.892013 
L 637.749727 293.814278 
L 640.228674 319.406724 
L 642.707621 310.401795 
L 645.186568 357.066831 
L 647.689818 307.935612 
L 650.168765 319.432138 
L 652.647712 319.681709 
L 655.126659 308.062601 
L 657.605605 303.04852 
L 660.084552 334.627172 
L 662.563499 331.548079 
L 665.042446 354.994311 
L 667.521393 283.055108 
L 670.00034 326.893996 
L 672.50359 318.301753 
L 674.982537 329.334453 
L 677.485787 318.34039 
L 679.964734 303.617 
L 682.443681 353.928055 
L 684.946931 320.358569 
L 687.450181 300.545614 
L 689.953432 310.423021 
L 692.432378 286.613821 
L 694.911325 316.380993 
L 697.390272 306.760831 
L 699.893522 352.694892 
L 702.372469 323.559645 
L 704.851416 311.523476 
L 707.354666 296.594608 
L 709.857917 325.034572 
L 712.336863 310.274151 
L 714.81581 364.47991 
L 717.319061 339.191816 
L 719.822311 322.159732 
L 722.325561 320.972674 
L 724.828811 295.619402 
L 727.307758 322.943489 
L 729.786705 318.826923 
L 732.265652 363.638157 
L 734.768902 317.016496 
L 737.247849 330.697631 
L 739.726796 304.239505 
L 742.205743 261.334788 
L 744.68469 301.109774 
L 747.163636 354.555957 
L 747.163636 354.555957 
" clip-path="url(#pb9d54c48e1)" style="fill: none; stroke: #ffa500; stroke-width: 1.5; stroke-linecap: square"/>
   </g>
   <g id="patch_3">
    <path d="M 108 384.48 
L 108 51.84 
" style="fill: none; stroke: #000000; stroke-width: 0.8; stroke-linejoin: miter; stroke-linecap: square"/>
   </g>
   <g id="patch_4">
    <path d="M 777.6 384.48 
L 777.6 51.84 
" style="fill: none; stroke: #000000; stroke-width: 0.8; stroke-linejoin: miter; stroke-linecap: square"/>
   </g>
   <g id="patch_5">
    <path d="M 108 384.48 
L 777.6 384.48 
" style="fill: none; stroke: #000000; stroke-width: 0.8; stroke-linejoin: miter; stroke-linecap: square"/>
   </g>
   <g id="patch_6">
    <path d="M 108 51.84 
L 777.6 51.84 
" style="fill: none; stroke: #000000; stroke-width: 0.8; stroke-linejoin: miter; stroke-linecap: square"/>
   </g>
   <g id="text_15">
    <!-- Effective (Actual) Power Consumption over Time -->
    <g transform="translate(297.582188 45.84) scale(0.12 -0.12)">
     <defs>
      <path id="DejaVuSans-41" d="M 2188 4044 
L 1331 1722 
L 3047 1722 
L 2188 4044 
z
M 1831 4666 
L 2547 4666 
L 4325 0 
L 3669 0 
L 3244 1197 
L 1141 1197 
L 716 0 
L 50 0 
L 1831 4666 
z
" transform="scale(0.015625)"/>
      <path id="DejaVuSans-6c" d="M 603 4863 
L 1178 4863 
L 1178 0 
L 603 0 
L 603 4863 
z
" transform="scale(0.015625)"/>
     </defs>
     <use xlink:href="#DejaVuSans-45"/>
     <use xlink:href="#DejaVuSans-66" x="63.183594"/>
     <use xlink:href="#DejaVuSans-66" x="98.388672"/>
     <use xlink:href="#DejaVuSans-65" x="133.59375"/>
     <use xlink:href="#DejaVuSans-63" x="195.117188"/>
     <use xlink:href="#DejaVuSans-74" x="250.097656"/>
     <use xlink:href="#DejaVuSans-69" x="289.306641"/>
     <use xlink:href="#DejaVuSans-76" x="317.089844"/>
     <use xlink:href="#DejaVuSans-65" x="376.269531"/>
     <use xlink:href="#DejaVuSans-20" x="437.792969"/>
     <use xlink:href="#DejaVuSans-28" x="469.580078"/>
     <use xlink:href="#DejaVuSans-41" x="508.59375"/>
     <use xlink:href="#DejaVuSans-63" x="575.251953"/>
     <use xlink:href="#DejaVuSans-74" x="630.232422"/>
     <use xlink:href="#DejaVuSans-75" x="669.441406"/>
     <use xlink:href="#DejaVuSans-61" x="732.820312"/>
     <use xlink:href="#DejaVuSans-6c" x="794.099609"/>
     <use xlink:href="#DejaVuSans-29" x="821.882812"/>
     <use xlink:href="#DejaVuSans-20" x="860.896484"/>
     <use xlink:href="#DejaVuSans-50" x="892.683594"/>
     <use xlink:href="#DejaVuSans-6f" x="949.361328"/>
     <use xlink:href="#DejaVuSans-77" x="1010.542969"/>
     <use xlink:href="#DejaVuSans-65" x="1092.330078"/>
     <use xlink:href="#DejaVuSans-72" x="1153.853516"/>
     <use xlink:href="#DejaVuSans-20" x="1194.966797"/>
     <use xlink:href="#DejaVuSans-43" x="1226.753906"/>
     <use xlink:href="#DejaVuSans-6f" x="1296.578125"/>
     <use xlink:href="#DejaVuSans-6e" x="1357.759766"/>
     <use xlink:href="#DejaVuSans-73" x="1421.138672"/>
     <use xlink:href="#DejaVuSans-75" x="1473.238281"/>
     <use xlink:href="#DejaVuSans-6d" x="1536.617188"/>
     <use xlink:href="#DejaVuSans-70" x="1634.029297"/>
     <use xlink:href="#DejaVuSans-74" x="1697.505859"/>
     <use xlink:href="#DejaVuSans-69" x="1736.714844"/>
     <use xlink:href="#DejaVuSans-6f" x="1764.498047"/>
     <use xlink:href="#DejaVuSans-6e" x="1825.679688"/>
     <use xlink:href="#DejaVuSans-20" x="1889.058594"/>
     <use xlink:href="#DejaVuSans-6f" x="1920.845703"/>
     <use xlink:href="#DejaVuSans-76" x="1982.027344"/>
     <use xlink:href="#DejaVuSans-65" x="2041.207031"/>
     <use xlink:href="#DejaVuSans-72" x="2102.730469"/>
     <use xlink:href="#DejaVuSans-20" x="2143.84375"/>
     <use xlink:href="#DejaVuSans-54" x="2175.630859"/>
     <use xlink:href="#DejaVuSans-69" x="2233.589844"/>
     <use xlink:href="#DejaVuSans-6d" x="2261.373047"/>
     <use xlink:href="#DejaVuSans-65" x="2358.785156"/>
    </g>
   </g>
   <g id="legend_1">
    <g id="patch_7">
     <path d="M 661.4125 74.518125 
L 770.6 74.518125 
Q 772.6 74.518125 772.6 72.518125 
L 772.6 58.84 
Q 772.6 56.84 770.6 56.84 
L 661.4125 56.84 
Q 659.4125 56.84 659.4125 58.84 
L 659.4125 72.518125 
Q 659.4125 74.518125 661.4125 74.518125 
z
" style="fill: #ffffff; opacity: 0.8; stroke: #cccccc; stroke-linejoin: miter"/>
    </g>
    <g id="line2d_14">
     <path d="M 663.4125 64.938438 
L 673.4125 64.938438 
L 683.4125 64.938438 
" style="fill: none; stroke: #ffa500; stroke-width: 1.5; stroke-linecap: square"/>
    </g>
    <g id="text_16">
     <!-- Effective Power -->
     <g transform="translate(691.4125 68.438438) scale(0.1 -0.1)">
      <use xlink:href="#DejaVuSans-45"/>
      <use xlink:href="#DejaVuSans-66" x="63.183594"/>
      <use xlink:href="#DejaVuSans-66" x="98.388672"/>
      <use xlink:href="#DejaVuSans-65" x="133.59375"/>
      <use xlink:href="#DejaVuSans-63" x="195.117188"/>
      <use xlink:href="#DejaVuSans-74" x="250.097656"/>
      <use xlink:href="#DejaVuSans-69" x="289.306641"/>
      <use xlink:href="#DejaVuSans-76" x="317.089844"/>
      <use xlink:href="#DejaVuSans-65" x="376.269531"/>
      <use xlink:href="#DejaVuSans-20" x="437.792969"/>
      <use xlink:href="#DejaVuSans-50" x="469.580078"/>
      <use xlink:href="#DejaVuSans-6f" x="526.257812"/>
      <use xlink:href="#DejaVuSans-77" x="587.439453"/>
      <use xlink:href="#DejaVuSans-65" x="669.226562"/>
      <use xlink:href="#DejaVuSans-72" x="730.75"/>
     </g>
    </g>
   </g>
  </g>
 </g>
 <defs>
  <clipPath id="pb9d54c48e1">
   <rect x="108" y="51.84" width="669.6" height="332.64"/>
  </clipPath>
 </defs>
</svg>
